{"asset":{"version":"2.0","generator":"VECTARY"},"nodes":[{"translation":[0,0,0],"scale":[0.008482142857142844,0.008482142857142863,0.00848214285714286],"rotation":[0.06975647374412525,0,0,0.9975640502598242],"name":"calculator","children":[1,2,3,4,5,6,7,8,9,14,19]},{"translation":[-22.816194817750556,11.699253308056086,-3.3761915543242083],"scale":[1,1,1],"rotation":[0,0,0,1],"name":"Rectangle 7","mesh":0},{"translation":[38.835975687402026,11.699253308056086,-3.3761915543242083],"scale":[1,1,1],"rotation":[0,0,0,1],"name":"Rectangle 8","mesh":1},{"translation":[14.507747054499077,11.699253308056086,-3.3761915543242083],"scale":[1,1,1],"rotation":[0,0,0,1],"name":"Rectangle 6","mesh":2},{"translation":[-34.13151087104109,-13.445173343380645,-3.3761915543242083],"scale":[1,1,1],"rotation":[0,0,0,1],"name":"Rectangle 5","mesh":3},{"translation":[-34.13151087104109,-38.07287614572061,-3.3761915543242083],"scale":[1,1,1],"rotation":[0,0,0,1],"name":"Rectangle 4","mesh":4},{"translation":[-34.13151087104109,-63.96088101902808,-3.3761915543242083],"scale":[1,1,1],"rotation":[0,0,0,1],"name":"Rectangle 3","mesh":5},{"translation":[-0.46758001277339645,53.942960880046606,8.312363272251872],"scale":[1,0.8517215178389987,0.9999999999999993],"rotation":[0.34202014332566866,0,0,0.9396926207859084],"name":"Rectangle 2","mesh":6},{"translation":[0,-26.244434356689396,-15.03352689743042],"scale":[1,1,1],"rotation":[0,0,0,1],"name":"Cube","mesh":7},{"translation":[-34.13151087104109,-13.445173343380645,-3.3761915543242083],"scale":[1,1,1],"rotation":[0,0,0,1],"name":"Group 2","children":[10,11,12,13]},{"translation":[0,0,0],"scale":[1,1,1],"rotation":[0,0,0,1],"name":"Buffer Object","mesh":8},{"translation":[24.2,0,0],"scale":[1,1,1],"rotation":[0,0,0,1],"name":"Buffer Object","mesh":9},{"translation":[48.4,0,0],"scale":[1,1,1],"rotation":[0,0,0,1],"name":"Buffer Object","mesh":10},{"translation":[72.6,0,0],"scale":[1,1,1],"rotation":[0,0,0,1],"name":"Buffer Object","mesh":11},{"translation":[-34.13151087104109,-38.07287614572061,-3.3761915543242083],"scale":[1,1,1],"rotation":[0,0,0,1],"name":"Group 1","children":[15,16,17,18]},{"translation":[0,0,0],"scale":[1,1,1],"rotation":[0,0,0,1],"name":"Buffer Object","mesh":12},{"translation":[24.2,0,0],"scale":[1,1,1],"rotation":[0,0,0,1],"name":"Buffer Object","mesh":13},{"translation":[48.4,0,0],"scale":[1,1,1],"rotation":[0,0,0,1],"name":"Buffer Object","mesh":14},{"translation":[72.6,0,0],"scale":[1,1,1],"rotation":[0,0,0,1],"name":"Buffer Object","mesh":15},{"translation":[-34.13151087104109,-63.96088101902808,-3.3761915543242083],"scale":[1,1,1],"rotation":[0,0,0,1],"name":"Group","children":[20,21,22,23]},{"translation":[0,0,0],"scale":[1,1,1],"rotation":[0,0,0,1],"name":"Buffer Object","mesh":16},{"translation":[24.2,0,0],"scale":[1,1,1],"rotation":[0,0,0,1],"name":"Buffer Object","mesh":17},{"translation":[48.4,0,0],"scale":[1,1,1],"rotation":[0,0,0,1],"name":"Buffer Object","mesh":18},{"translation":[72.6,0,0],"scale":[1,1,1],"rotation":[0,0,0,1],"name":"Buffer Object","mesh":19}],"materials":[{"pbrMetallicRoughness":{"baseColorFactor":[0.8277257944550337,0.38891025653905886,1,1],"metallicFactor":0,"roughnessFactor":0.2},"name":"Classic Mix","emissiveFactor":[0,0,0],"extensions":{},"alphaMode":"OPAQUE","doubleSided":false},{"pbrMetallicRoughness":{"baseColorFactor":[0.8277257944550337,0.38891025653905886,1,1],"metallicFactor":0,"roughnessFactor":0.2},"name":"Refresh","emissiveFactor":[0,0,0],"extensions":{},"alphaMode":"OPAQUE","doubleSided":false},{"pbrMetallicRoughness":{"baseColorFactor":[0.8277257944550337,0.38891025653905886,1,1],"metallicFactor":0,"roughnessFactor":0.2},"name":"Pluto","emissiveFactor":[0,0,0],"extensions":{},"alphaMode":"OPAQUE","doubleSided":false},{"pbrMetallicRoughness":{"baseColorFactor":[0.5668097348966382,0.39408312608282897,0.8355277914608409,1],"metallicFactor":0,"roughnessFactor":0.2},"name":"Bolognese","emissiveFactor":[0,0,0],"extensions":{},"alphaMode":"OPAQUE","doubleSided":false},{"pbrMetallicRoughness":{"baseColorFactor":[0.5668097348966382,0.39408312608282897,0.8355277914608409,1],"metallicFactor":0,"roughnessFactor":0.2},"name":"Alhambra","emissiveFactor":[0,0,0],"extensions":{},"alphaMode":"OPAQUE","doubleSided":false},{"pbrMetallicRoughness":{"baseColorFactor":[0.5668097348966382,0.39408312608282897,0.8355277914608409,1],"metallicFactor":0,"roughnessFactor":0.2},"name":"Windsurf","emissiveFactor":[0,0,0],"extensions":{},"alphaMode":"OPAQUE","doubleSided":false},{"pbrMetallicRoughness":{"baseColorFactor":[0.5668097348966382,0.39408312608282897,0.8355277914608409,1],"metallicFactor":0,"roughnessFactor":0.2},"name":"Independence","emissiveFactor":[0,0,0],"extensions":{},"alphaMode":"OPAQUE","doubleSided":false},{"pbrMetallicRoughness":{"baseColorFactor":[0.267358060183772,0.15415226081216515,0.5479935021969718,1],"metallicFactor":0,"roughnessFactor":0.2},"name":"Mars","emissiveFactor":[0,0,0],"extensions":{},"alphaMode":"OPAQUE","doubleSided":false},{"pbrMetallicRoughness":{"baseColorFactor":[0.8670237934377415,0.8670237934377415,0.8670237934377415,1],"metallicFactor":0,"roughnessFactor":0.2},"name":"Mimosa","emissiveFactor":[0,0,0],"extensions":{},"alphaMode":"OPAQUE","doubleSided":false},{"pbrMetallicRoughness":{"baseColorFactor":[0.8670237934377415,0.8670237934377415,0.8670237934377415,1],"metallicFactor":0,"roughnessFactor":0.2},"name":"Drover","emissiveFactor":[0,0,0],"extensions":{},"alphaMode":"OPAQUE","doubleSided":false},{"pbrMetallicRoughness":{"baseColorFactor":[0.8670237934377415,0.8670237934377415,0.8670237934377415,1],"metallicFactor":0,"roughnessFactor":0.2},"name":"Rosemary","emissiveFactor":[0,0,0],"extensions":{},"alphaMode":"OPAQUE","doubleSided":false},{"pbrMetallicRoughness":{"baseColorFactor":[0.8670237934377415,0.8670237934377415,0.8670237934377415,1],"metallicFactor":0,"roughnessFactor":0.2},"name":"Utah","emissiveFactor":[0,0,0],"extensions":{},"alphaMode":"OPAQUE","doubleSided":false},{"pbrMetallicRoughness":{"baseColorFactor":[0.8670237934377415,0.8670237934377415,0.8670237934377415,1],"metallicFactor":0,"roughnessFactor":0.2},"name":"Clear View","emissiveFactor":[0,0,0],"extensions":{},"alphaMode":"OPAQUE","doubleSided":false},{"pbrMetallicRoughness":{"baseColorFactor":[0.8670237934377415,0.8670237934377415,0.8670237934377415,1],"metallicFactor":0,"roughnessFactor":0.2},"name":"Cold Spring","emissiveFactor":[0,0,0],"extensions":{},"alphaMode":"OPAQUE","doubleSided":false},{"pbrMetallicRoughness":{"baseColorFactor":[0.8670237934377415,0.8670237934377415,0.8670237934377415,1],"metallicFactor":0,"roughnessFactor":0.2},"name":"Phantom","emissiveFactor":[0,0,0],"extensions":{},"alphaMode":"OPAQUE","doubleSided":false},{"pbrMetallicRoughness":{"baseColorFactor":[0.8670237934377415,0.8670237934377415,0.8670237934377415,1],"metallicFactor":0,"roughnessFactor":0.2},"name":"Volt","emissiveFactor":[0,0,0],"extensions":{},"alphaMode":"OPAQUE","doubleSided":false},{"pbrMetallicRoughness":{"baseColorFactor":[0.5604991522043282,0.39408312608282897,0.8355277914608409,1],"metallicFactor":0,"roughnessFactor":0.2},"name":"Fabulous Fantasy","emissiveFactor":[0,0,0],"extensions":{},"alphaMode":"OPAQUE","doubleSided":false},{"pbrMetallicRoughness":{"baseColorFactor":[0.8670237934377415,0.8670237934377415,0.8670237934377415,1],"metallicFactor":0,"roughnessFactor":0.2},"name":"Andorra","emissiveFactor":[0,0,0],"extensions":{},"alphaMode":"OPAQUE","doubleSided":false},{"pbrMetallicRoughness":{"baseColorFactor":[0.8670237934377415,0.8670237934377415,0.8670237934377415,1],"metallicFactor":0,"roughnessFactor":0.2},"name":"Herbal Scent","emissiveFactor":[0,0,0],"extensions":{},"alphaMode":"OPAQUE","doubleSided":false},{"pbrMetallicRoughness":{"baseColorFactor":[0.8670237934377415,0.8670237934377415,0.8670237934377415,1],"metallicFactor":0,"roughnessFactor":0.2},"name":"Aragon","emissiveFactor":[0,0,0],"extensions":{},"alphaMode":"OPAQUE","doubleSided":false}],"meshes":[{"primitives":[{"mode":4,"attributes":{"POSITION":1,"NORMAL":2,"TEXCOORD_0":3},"material":0,"indices":0}]},{"primitives":[{"mode":4,"attributes":{"POSITION":5,"NORMAL":6,"TEXCOORD_0":7},"material":1,"indices":4}]},{"primitives":[{"mode":4,"attributes":{"POSITION":5,"NORMAL":6,"TEXCOORD_0":7},"material":2,"indices":4}]},{"primitives":[{"mode":4,"attributes":{"POSITION":5,"NORMAL":6,"TEXCOORD_0":7},"material":3,"indices":4}]},{"primitives":[{"mode":4,"attributes":{"POSITION":5,"NORMAL":6,"TEXCOORD_0":7},"material":4,"indices":4}]},{"primitives":[{"mode":4,"attributes":{"POSITION":5,"NORMAL":6,"TEXCOORD_0":7},"material":5,"indices":4}]},{"primitives":[{"mode":4,"attributes":{"POSITION":9,"NORMAL":10,"TEXCOORD_0":11},"material":6,"indices":8}]},{"primitives":[{"mode":4,"attributes":{"POSITION":13,"NORMAL":14,"TEXCOORD_0":15},"material":7,"indices":12}]},{"primitives":[{"mode":4,"attributes":{"POSITION":5,"NORMAL":6,"TEXCOORD_0":7},"material":8,"indices":4}]},{"primitives":[{"mode":4,"attributes":{"POSITION":5,"NORMAL":6,"TEXCOORD_0":7},"material":9,"indices":4}]},{"primitives":[{"mode":4,"attributes":{"POSITION":5,"NORMAL":6,"TEXCOORD_0":7},"material":10,"indices":4}]},{"primitives":[{"mode":4,"attributes":{"POSITION":5,"NORMAL":6,"TEXCOORD_0":7},"material":11,"indices":4}]},{"primitives":[{"mode":4,"attributes":{"POSITION":5,"NORMAL":6,"TEXCOORD_0":7},"material":12,"indices":4}]},{"primitives":[{"mode":4,"attributes":{"POSITION":5,"NORMAL":6,"TEXCOORD_0":7},"material":13,"indices":4}]},{"primitives":[{"mode":4,"attributes":{"POSITION":5,"NORMAL":6,"TEXCOORD_0":7},"material":14,"indices":4}]},{"primitives":[{"mode":4,"attributes":{"POSITION":5,"NORMAL":6,"TEXCOORD_0":7},"material":15,"indices":4}]},{"primitives":[{"mode":4,"attributes":{"POSITION":5,"NORMAL":6,"TEXCOORD_0":7},"material":16,"indices":4}]},{"primitives":[{"mode":4,"attributes":{"POSITION":5,"NORMAL":6,"TEXCOORD_0":7},"material":17,"indices":4}]},{"primitives":[{"mode":4,"attributes":{"POSITION":5,"NORMAL":6,"TEXCOORD_0":7},"material":18,"indices":4}]},{"primitives":[{"mode":4,"attributes":{"POSITION":5,"NORMAL":6,"TEXCOORD_0":7},"material":19,"indices":4}]}],"accessors":[{"bufferView":0,"byteOffset":0,"componentType":5125,"count":1956,"type":"SCALAR"},{"bufferView":1,"byteOffset":0,"componentType":5126,"count":656,"max":[23.5,11,7],"min":[-23.5,-11,0],"type":"VEC3"},{"bufferView":2,"byteOffset":0,"componentType":5126,"count":656,"type":"VEC3"},{"bufferView":3,"byteOffset":0,"componentType":5126,"count":656,"type":"VEC2"},{"bufferView":4,"byteOffset":0,"componentType":5125,"count":1956,"type":"SCALAR"},{"bufferView":5,"byteOffset":0,"componentType":5126,"count":656,"max":[11,11,7],"min":[-11,-11,0],"type":"VEC3"},{"bufferView":6,"byteOffset":0,"componentType":5126,"count":656,"type":"VEC3"},{"bufferView":7,"byteOffset":0,"componentType":5126,"count":656,"type":"VEC2"},{"bufferView":8,"byteOffset":0,"componentType":5125,"count":1956,"type":"SCALAR"},{"bufferView":9,"byteOffset":0,"componentType":5126,"count":656,"max":[41.5,13,8],"min":[-41.5,-13,0],"type":"VEC3"},{"bufferView":10,"byteOffset":0,"componentType":5126,"count":656,"type":"VEC3"},{"bufferView":11,"byteOffset":0,"componentType":5126,"count":656,"type":"VEC2"},{"bufferView":12,"byteOffset":0,"componentType":5125,"count":7488,"type":"SCALAR"},{"bufferView":13,"byteOffset":0,"componentType":5126,"count":3612,"max":[56,111.28253936767578,41.00556182861328],"min":[-56,-62,-13.285813331604004],"type":"VEC3"},{"bufferView":14,"byteOffset":0,"componentType":5126,"count":3612,"type":"VEC3"},{"bufferView":15,"byteOffset":0,"componentType":5126,"count":3612,"type":"VEC2"}],"bufferViews":[{"buffer":0,"byteOffset":0,"byteLength":7824,"target":34963},{"buffer":0,"byteOffset":7824,"byteLength":7872,"target":34962},{"buffer":0,"byteOffset":15696,"byteLength":7872,"target":34962},{"buffer":0,"byteOffset":23568,"byteLength":5248,"target":34962},{"buffer":0,"byteOffset":28816,"byteLength":7824,"target":34963},{"buffer":0,"byteOffset":36640,"byteLength":7872,"target":34962},{"buffer":0,"byteOffset":44512,"byteLength":7872,"target":34962},{"buffer":0,"byteOffset":52384,"byteLength":5248,"target":34962},{"buffer":0,"byteOffset":57632,"byteLength":7824,"target":34963},{"buffer":0,"byteOffset":65456,"byteLength":7872,"target":34962},{"buffer":0,"byteOffset":73328,"byteLength":7872,"target":34962},{"buffer":0,"byteOffset":81200,"byteLength":5248,"target":34962},{"buffer":0,"byteOffset":86448,"byteLength":29952,"target":34963},{"buffer":0,"byteOffset":116400,"byteLength":43344,"target":34962},{"buffer":0,"byteOffset":159744,"byteLength":43344,"target":34962},{"buffer":0,"byteOffset":203088,"byteLength":28896,"target":34962}],"scene":0,"scenes":[{"nodes":[0],"name":"Calculator"}],"extensionsUsed":["KHR_texture_transform"],"buffers":[{"byteLength":231984,"uri":"Calculator.bin"}]}