{"asset":{"version":"2.0","generator":"VECTARY"},"nodes":[{"translation":[0,0,0],"scale":[0.009999999999999997,0.01,0.009999999999999997],"rotation":[0.14625828331473023,-0.05334008982151414,-0.520958377863948,0.8392649867074313],"name":"flash drive","children":[1,2,3,4,5]},{"translation":[-6.496748708554832,-20.00938767525076,0.29377011664485053],"scale":[1,1.0000000000000002,1.0000000000000002],"rotation":[-0.7071067811865475,0,0,0.7071067811865476],"name":"Ellipse 2","mesh":0},{"translation":[-6.496748708554833,16.009387675250764,0.2937701166448506],"scale":[1,1.0000000000000002,1.0000000000000002],"rotation":[-0.7071067811865475,0,0,0.7071067811865476],"name":"Ellipse","mesh":1},{"translation":[26.683878514330384,-14.375299528962952,-5.684341886080801e-14],"scale":[0.9999999999999999,0.7221560933532748,1.183970802628076],"rotation":[0,0,0,1],"name":"Cube 2","mesh":2},{"translation":[-59.88049945549255,-0.2893330935145286,-5.684341886080802e-14],"scale":[1,0.8495954039450293,1.1839708026280764],"rotation":[0,0,0,1],"name":"Cube 3","mesh":3},{"translation":[-4.289001896905801,-0.23136000784211314,-5.684341886080801e-14],"scale":[0.9999999999999999,0.7221560933532748,1.183970802628076],"rotation":[0,0,0,1],"name":"Cube","mesh":4}],"materials":[{"pbrMetallicRoughness":{"baseColorFactor":[0.598941789493296,0.3392233349353267,0.6800203421720954,1],"metallicFactor":0,"roughnessFactor":0.2},"name":"Tulip","emissiveFactor":[0,0,0],"extensions":{},"alphaMode":"OPAQUE","doubleSided":false},{"pbrMetallicRoughness":{"baseColorFactor":[0.598941789493296,0.3392233349353267,0.6800203421720954,1],"metallicFactor":0,"roughnessFactor":0.2},"name":"Spicy Mix","emissiveFactor":[0,0,0],"extensions":{},"alphaMode":"OPAQUE","doubleSided":false},{"pbrMetallicRoughness":{"baseColorFactor":[0.5668097348966382,0.39408312608282897,0.8355277914608409,1],"metallicFactor":0,"roughnessFactor":0.2},"name":"Zeus","emissiveFactor":[0,0,0],"extensions":{},"alphaMode":"OPAQUE","doubleSided":false},{"pbrMetallicRoughness":{"baseColorFactor":[0.5668097348966382,0.39408312608282897,0.8355277914608409,1],"metallicFactor":0,"roughnessFactor":0.2},"name":"Breath of Spring","emissiveFactor":[0,0,0],"extensions":{},"alphaMode":"OPAQUE","doubleSided":false},{"pbrMetallicRoughness":{"baseColorFactor":[0.267358060183772,0.15415226081216515,0.5479935021969718,1],"metallicFactor":0,"roughnessFactor":0.2},"name":"Incognito","emissiveFactor":[0,0,0],"extensions":{},"alphaMode":"OPAQUE","doubleSided":false}],"meshes":[{"primitives":[{"mode":4,"attributes":{"POSITION":1,"NORMAL":2,"TEXCOORD_0":3},"material":0,"indices":0}]},{"primitives":[{"mode":4,"attributes":{"POSITION":1,"NORMAL":2,"TEXCOORD_0":3},"material":1,"indices":0}]},{"primitives":[{"mode":4,"attributes":{"POSITION":5,"NORMAL":6,"TEXCOORD_0":7},"material":2,"indices":4}]},{"primitives":[{"mode":4,"attributes":{"POSITION":9,"NORMAL":10,"TEXCOORD_0":11},"material":3,"indices":8}]},{"primitives":[{"mode":4,"attributes":{"POSITION":13,"NORMAL":14,"TEXCOORD_0":15},"material":4,"indices":12}]}],"accessors":[{"bufferView":0,"byteOffset":0,"componentType":5125,"count":1524,"type":"SCALAR"},{"bufferView":1,"byteOffset":0,"componentType":5126,"count":384,"max":[16,16,4],"min":[-16,-16,0],"type":"VEC3"},{"bufferView":2,"byteOffset":0,"componentType":5126,"count":384,"type":"VEC3"},{"bufferView":3,"byteOffset":0,"componentType":5126,"count":384,"type":"VEC2"},{"bufferView":4,"byteOffset":0,"componentType":5125,"count":10752,"type":"SCALAR"},{"bufferView":5,"byteOffset":0,"componentType":5126,"count":4964,"max":[41.45679473876953,43.58113479614258,21.960002899169922],"min":[-57.22174835205078,-3.5,-21.960002899169922],"type":"VEC3"},{"bufferView":6,"byteOffset":0,"componentType":5126,"count":4964,"type":"VEC3"},{"bufferView":7,"byteOffset":0,"componentType":5126,"count":4964,"type":"VEC2"},{"bufferView":8,"byteOffset":0,"componentType":5125,"count":2148,"type":"SCALAR"},{"bufferView":9,"byteOffset":0,"componentType":5126,"count":528,"max":[10,6,11],"min":[-10,-6,-11],"type":"VEC3"},{"bufferView":10,"byteOffset":0,"componentType":5126,"count":528,"type":"VEC3"},{"bufferView":11,"byteOffset":0,"componentType":5126,"count":528,"type":"VEC2"},{"bufferView":12,"byteOffset":0,"componentType":5125,"count":2148,"type":"SCALAR"},{"bufferView":13,"byteOffset":0,"componentType":5126,"count":528,"max":[47.5,18,19],"min":[-47.5,-18,-19],"type":"VEC3"},{"bufferView":14,"byteOffset":0,"componentType":5126,"count":528,"type":"VEC3"},{"bufferView":15,"byteOffset":0,"componentType":5126,"count":528,"type":"VEC2"}],"bufferViews":[{"buffer":0,"byteOffset":0,"byteLength":6096,"target":34963},{"buffer":0,"byteOffset":6096,"byteLength":4608,"target":34962},{"buffer":0,"byteOffset":10704,"byteLength":4608,"target":34962},{"buffer":0,"byteOffset":15312,"byteLength":3072,"target":34962},{"buffer":0,"byteOffset":18384,"byteLength":43008,"target":34963},{"buffer":0,"byteOffset":61392,"byteLength":59568,"target":34962},{"buffer":0,"byteOffset":120960,"byteLength":59568,"target":34962},{"buffer":0,"byteOffset":180528,"byteLength":39712,"target":34962},{"buffer":0,"byteOffset":220240,"byteLength":8592,"target":34963},{"buffer":0,"byteOffset":228832,"byteLength":6336,"target":34962},{"buffer":0,"byteOffset":235168,"byteLength":6336,"target":34962},{"buffer":0,"byteOffset":241504,"byteLength":4224,"target":34962},{"buffer":0,"byteOffset":245728,"byteLength":8592,"target":34963},{"buffer":0,"byteOffset":254320,"byteLength":6336,"target":34962},{"buffer":0,"byteOffset":260656,"byteLength":6336,"target":34962},{"buffer":0,"byteOffset":266992,"byteLength":4224,"target":34962}],"scene":0,"scenes":[{"nodes":[0],"name":"Flashdrive"}],"extensionsUsed":["KHR_texture_transform"],"buffers":[{"byteLength":271216,"uri":"Flashdrive.bin"}]}