{"asset":{"version":"2.0","generator":"VECTARY"},"nodes":[{"translation":[0,0,0],"scale":[0.009008313451018102,0.009008313451018109,0.009008313451018107],"rotation":[0,0,0,1],"name":"AirPods","children":[1,4]},{"translation":[-21.892682843542214,-8.14945561952592e-16,-15.924117912793314],"scale":[0.9624951256678919,0.9624951256678745,0.3736554593898352],"rotation":[0.1370363408964714,0.9848361464644292,-0.06148393655288948,0.08682471673872473],"name":"Group 57","children":[2,3]},{"translation":[-27.78766131222556,-63.76242727394702,1.9353322486867623],"scale":[1,1,1],"rotation":[0,0,-0.3826834323650899,0.9238795325112867],"name":"Cylinder","mesh":0},{"translation":[0.5545082155940089,-34.64557399211156,2.842170943040401e-14],"scale":[1,1,1],"rotation":[0,0,-0.3826834323650899,0.9238795325112867],"name":"Cube","mesh":1},{"translation":[41.29179125779387,3.8461761281091067,10.01874707251926],"scale":[0.9624951256678754,0.9624951256678759,0.9624951256678754],"rotation":[0,0,0,1],"name":"Group 56","children":[5,6]},{"translation":[-27.78766131222556,-63.76242727394702,1.9353322486867623],"scale":[1,1,1],"rotation":[0,0,-0.3826834323650899,0.9238795325112867],"name":"Cylinder","mesh":2},{"translation":[0.5545082155940089,-34.64557399211156,2.842170943040401e-14],"scale":[1,1,1],"rotation":[0,0,-0.3826834323650899,0.9238795325112867],"name":"Cube","mesh":3}],"materials":[{"pbrMetallicRoughness":{"baseColorFactor":[0.5668097348966382,0.39408312608282897,0.8355277914608409,1],"metallicFactor":0,"roughnessFactor":0.2},"name":"Forbidden Thrill","emissiveFactor":[0,0,0],"extensions":{},"alphaMode":"OPAQUE","doubleSided":false},{"pbrMetallicRoughness":{"baseColorFactor":[0.267358060183772,0.15415226081216515,0.5479935021969718,1],"metallicFactor":0,"roughnessFactor":0.2},"name":"Stanley","emissiveFactor":[0,0,0],"extensions":{},"alphaMode":"OPAQUE","doubleSided":false},{"pbrMetallicRoughness":{"baseColorFactor":[0.5668097348966382,0.39408312608282897,0.8355277914608409,1],"metallicFactor":0,"roughnessFactor":0.2},"name":"Bare","emissiveFactor":[0,0,0],"extensions":{},"alphaMode":"OPAQUE","doubleSided":false},{"pbrMetallicRoughness":{"baseColorFactor":[0.267358060183772,0.15415226081216515,0.5479935021969718,1],"metallicFactor":0,"roughnessFactor":0.2},"name":"Force of Nature","emissiveFactor":[0,0,0],"extensions":{},"alphaMode":"OPAQUE","doubleSided":false}],"meshes":[{"primitives":[{"mode":4,"attributes":{"POSITION":1,"NORMAL":2,"TEXCOORD_0":3},"material":0,"indices":0}]},{"primitives":[{"mode":4,"attributes":{"POSITION":5,"NORMAL":6,"TEXCOORD_0":7},"material":1,"indices":4}]},{"primitives":[{"mode":4,"attributes":{"POSITION":1,"NORMAL":2,"TEXCOORD_0":3},"material":2,"indices":0}]},{"primitives":[{"mode":4,"attributes":{"POSITION":5,"NORMAL":6,"TEXCOORD_0":7},"material":3,"indices":4}]}],"accessors":[{"bufferView":0,"byteOffset":0,"componentType":5125,"count":6912,"type":"SCALAR"},{"bufferView":1,"byteOffset":0,"componentType":5126,"count":1432,"max":[8.5,8.5,8.5],"min":[-8.5,-8.5,-8.5],"type":"VEC3"},{"bufferView":2,"byteOffset":0,"componentType":5126,"count":1432,"type":"VEC3"},{"bufferView":3,"byteOffset":0,"componentType":5126,"count":1432,"type":"VEC2"},{"bufferView":4,"byteOffset":0,"componentType":5125,"count":6720,"type":"SCALAR"},{"bufferView":5,"byteOffset":0,"componentType":5126,"count":3238,"max":[15.363773345947266,82.05365753173828,35.04563903808594],"min":[-65.66200256347656,-43.00938415527344,-35.04563903808594],"type":"VEC3"},{"bufferView":6,"byteOffset":0,"componentType":5126,"count":3238,"type":"VEC3"},{"bufferView":7,"byteOffset":0,"componentType":5126,"count":3238,"type":"VEC2"}],"bufferViews":[{"buffer":0,"byteOffset":0,"byteLength":27648,"target":34963},{"buffer":0,"byteOffset":27648,"byteLength":17184,"target":34962},{"buffer":0,"byteOffset":44832,"byteLength":17184,"target":34962},{"buffer":0,"byteOffset":62016,"byteLength":11456,"target":34962},{"buffer":0,"byteOffset":73472,"byteLength":26880,"target":34963},{"buffer":0,"byteOffset":100352,"byteLength":38856,"target":34962},{"buffer":0,"byteOffset":139208,"byteLength":38856,"target":34962},{"buffer":0,"byteOffset":178064,"byteLength":25904,"target":34962}],"scene":0,"scenes":[{"nodes":[0],"name":"AirPods"}],"extensionsUsed":["KHR_texture_transform"],"buffers":[{"byteLength":203968,"uri":"AirPods.bin"}]}