{"asset":{"version":"2.0","generator":"VECTARY"},"nodes":[{"translation":[0,0,0],"scale":[0.01,0.010000000000000005,0.010000000000000005],"rotation":[0,0,0,1],"name":"suitcase","children":[1,2,3,4,5,6,7,8,9,10,11,12,13,14,15,16]},{"translation":[-22.629608373918803,-79.48751520497693,-18.77227118739098],"scale":[0.9999999999999999,0.835600351047288,1.000000000000068],"rotation":[0.7071067811865475,0,0,0.7071067811865476],"name":"Cylinder 4","mesh":0},{"translation":[19.30551471523143,-79.48751520497693,-18.772271187390984],"scale":[1,0.8356003510472876,1.0000000000000675],"rotation":[0.7071067811865475,0,0,0.7071067811865476],"name":"Cylinder 3","mesh":1},{"translation":[-22.629608373918817,-79.48751520497693,12.235952716505109],"scale":[1,0.8356003510472876,1.0000000000000675],"rotation":[0.7071067811865475,0,0,0.7071067811865476],"name":"Cylinder 4","mesh":2},{"translation":[19.30551471523143,-79.48751520497694,12.23595271650511],"scale":[1,0.8356003510472874,1.0000000000000675],"rotation":[0.7071067811865475,0,0,0.7071067811865476],"name":"Cylinder 2","mesh":3},{"translation":[-22.629608373918813,-79.48751520497693,-13.785873293674667],"scale":[1,0.8356003510472784,1.0000000000000564],"rotation":[0.7071067811865475,0,0,0.7071067811865476],"name":"Cylinder 4","mesh":4},{"translation":[19.305514715231425,-79.48751520497694,-13.785873293674669],"scale":[1,0.835600351047278,1.0000000000000562],"rotation":[0.7071067811865475,0,0,0.7071067811865476],"name":"Cylinder 3","mesh":5},{"translation":[-22.629608373918813,-79.48751520497694,17.222350610221426],"scale":[1,0.835600351047278,1.0000000000000562],"rotation":[0.7071067811865475,0,0,0.7071067811865476],"name":"Cylinder 4","mesh":6},{"translation":[19.305514715231425,-79.48751520497693,17.222350610221426],"scale":[1,0.8356003510472778,1.000000000000056],"rotation":[0.7071067811865475,0,0,0.7071067811865476],"name":"Cylinder","mesh":7},{"translation":[15.16537759471032,-45.45813706627267,32.08166391223225],"scale":[0.9080894264645832,0.9080894264645832,0.908089426464583],"rotation":[0,0,0.04361938736533599,0.9990482215818576],"name":"Triangle","mesh":8},{"translation":[-10.88199941200412,-32.70711178060003,32.08166391223225],"scale":[0.9080894264645822,0.9080894264645822,0.908089426464583],"rotation":[0,0,-0.0871557427476584,0.9961946980917455],"name":"Rectangle 3","mesh":9},{"translation":[12.39396682084248,-9.398231468619882,32.08166391223226],"scale":[0.9080894264645831,0.9080894264645831,0.9080894264645831],"rotation":[0,0,0,1],"name":"Ellipse","mesh":10},{"translation":[-11.450418710576056,4.630136859694515,32.08166391223226],"scale":[0.9080894264645827,0.9080894264645827,0.9080894264645831],"rotation":[0,0,-0.2798062370321492,0.9600564929825268],"name":"Rectangle 2","mesh":11},{"translation":[19.331307241720083,51.509417385764884,-23.56778008759831],"scale":[1,1,1],"rotation":[0,0,0,1],"name":"Cylinder 2","mesh":12},{"translation":[-19.02169282846546,51.509417385764884,-23.56778008759831],"scale":[1,1,1],"rotation":[0,0,0,1],"name":"Cylinder","mesh":13},{"translation":[0.107075052813002,75.31831031764455,-23.503174521796105],"scale":[1,1,1],"rotation":[0,0,0,1],"name":"Cube 3","mesh":14},{"translation":[0,-18.318310317644432,-0.35934865505399216],"scale":[1,1,1],"rotation":[0,0,0,1],"name":"Cube","mesh":15}],"materials":[{"pbrMetallicRoughness":{"baseColorFactor":[0.8277257944550337,0.38891025653905886,1,1],"metallicFactor":0,"roughnessFactor":0.2},"name":"Fall Chill","emissiveFactor":[0,0,0],"extensions":{},"alphaMode":"OPAQUE","doubleSided":false},{"pbrMetallicRoughness":{"baseColorFactor":[0.8277257944550337,0.38891025653905886,1,1],"metallicFactor":0,"roughnessFactor":0.2},"name":"Ace","emissiveFactor":[0,0,0],"extensions":{},"alphaMode":"OPAQUE","doubleSided":false},{"pbrMetallicRoughness":{"baseColorFactor":[0.8277257944550337,0.38891025653905886,1,1],"metallicFactor":0,"roughnessFactor":0.2},"name":"Amelia","emissiveFactor":[0,0,0],"extensions":{},"alphaMode":"OPAQUE","doubleSided":false},{"pbrMetallicRoughness":{"baseColorFactor":[0.8277257944550337,0.38891025653905886,1,1],"metallicFactor":0,"roughnessFactor":0.2},"name":"Safari","emissiveFactor":[0,0,0],"extensions":{},"alphaMode":"OPAQUE","doubleSided":false},{"pbrMetallicRoughness":{"baseColorFactor":[0.8277257944550337,0.38891025653905886,1,1],"metallicFactor":0,"roughnessFactor":0.2},"name":"Vienna","emissiveFactor":[0,0,0],"extensions":{},"alphaMode":"OPAQUE","doubleSided":false},{"pbrMetallicRoughness":{"baseColorFactor":[0.8277257944550337,0.38891025653905886,1,1],"metallicFactor":0,"roughnessFactor":0.2},"name":"Pleasant Dream","emissiveFactor":[0,0,0],"extensions":{},"alphaMode":"OPAQUE","doubleSided":false},{"pbrMetallicRoughness":{"baseColorFactor":[0.8277257944550337,0.38891025653905886,1,1],"metallicFactor":0,"roughnessFactor":0.2},"name":"Bella","emissiveFactor":[0,0,0],"extensions":{},"alphaMode":"OPAQUE","doubleSided":false},{"pbrMetallicRoughness":{"baseColorFactor":[0.8277257944550337,0.38891025653905886,1,1],"metallicFactor":0,"roughnessFactor":0.2},"name":"Argos","emissiveFactor":[0,0,0],"extensions":{},"alphaMode":"OPAQUE","doubleSided":false},{"pbrMetallicRoughness":{"baseColorFactor":[0.3586539059261989,0.5924380303208466,0.7011695015314021,1],"metallicFactor":0,"roughnessFactor":0.2},"name":"Hugo","emissiveFactor":[0,0,0],"extensions":{},"alphaMode":"OPAQUE","doubleSided":false},{"pbrMetallicRoughness":{"baseColorFactor":[0.8277257944550337,0.38891025653905886,1,1],"metallicFactor":0,"roughnessFactor":0.2},"name":"Ballon","emissiveFactor":[0,0,0],"extensions":{},"alphaMode":"OPAQUE","doubleSided":false},{"pbrMetallicRoughness":{"baseColorFactor":[0.598941789493296,0.3392233349353267,0.6800203421720954,1],"metallicFactor":0,"roughnessFactor":0.2},"name":"Secret Garden","emissiveFactor":[0,0,0],"extensions":{},"alphaMode":"OPAQUE","doubleSided":false},{"pbrMetallicRoughness":{"baseColorFactor":[0.5668097348966382,0.39408312608282897,0.8355277914608409,1],"metallicFactor":0,"roughnessFactor":0.2},"name":"Disco LIghts","emissiveFactor":[0,0,0],"extensions":{},"alphaMode":"OPAQUE","doubleSided":false},{"pbrMetallicRoughness":{"baseColorFactor":[0.5668097348966382,0.39408312608282897,0.8355277914608409,1],"metallicFactor":0,"roughnessFactor":0.2},"name":"Felicia","emissiveFactor":[0,0,0],"extensions":{},"alphaMode":"OPAQUE","doubleSided":false},{"pbrMetallicRoughness":{"baseColorFactor":[0.5668097348966382,0.39408312608282897,0.8355277914608409,1],"metallicFactor":0,"roughnessFactor":0.2},"name":"Crazy Dream","emissiveFactor":[0,0,0],"extensions":{},"alphaMode":"OPAQUE","doubleSided":false},{"pbrMetallicRoughness":{"baseColorFactor":[0.8277257944550337,0.38891025653905886,1,1],"metallicFactor":0,"roughnessFactor":0.2},"name":"Evening Glory","emissiveFactor":[0,0,0],"extensions":{},"alphaMode":"OPAQUE","doubleSided":false},{"pbrMetallicRoughness":{"baseColorFactor":[0.267358060183772,0.15415226081216515,0.5479935021969718,1],"metallicFactor":0,"roughnessFactor":0.2},"name":"Cleopatra","emissiveFactor":[0,0,0],"extensions":{},"alphaMode":"OPAQUE","doubleSided":false}],"meshes":[{"primitives":[{"mode":4,"attributes":{"POSITION":1,"NORMAL":2,"TEXCOORD_0":3},"material":0,"indices":0}]},{"primitives":[{"mode":4,"attributes":{"POSITION":1,"NORMAL":2,"TEXCOORD_0":3},"material":1,"indices":0}]},{"primitives":[{"mode":4,"attributes":{"POSITION":1,"NORMAL":2,"TEXCOORD_0":3},"material":2,"indices":0}]},{"primitives":[{"mode":4,"attributes":{"POSITION":1,"NORMAL":2,"TEXCOORD_0":3},"material":3,"indices":0}]},{"primitives":[{"mode":4,"attributes":{"POSITION":1,"NORMAL":2,"TEXCOORD_0":3},"material":4,"indices":0}]},{"primitives":[{"mode":4,"attributes":{"POSITION":1,"NORMAL":2,"TEXCOORD_0":3},"material":5,"indices":0}]},{"primitives":[{"mode":4,"attributes":{"POSITION":1,"NORMAL":2,"TEXCOORD_0":3},"material":6,"indices":0}]},{"primitives":[{"mode":4,"attributes":{"POSITION":1,"NORMAL":2,"TEXCOORD_0":3},"material":7,"indices":0}]},{"primitives":[{"mode":4,"attributes":{"POSITION":5,"NORMAL":6,"TEXCOORD_0":7},"material":8,"indices":4}]},{"primitives":[{"mode":4,"attributes":{"POSITION":9,"NORMAL":10,"TEXCOORD_0":11},"material":9,"indices":8}]},{"primitives":[{"mode":4,"attributes":{"POSITION":13,"NORMAL":14,"TEXCOORD_0":15},"material":10,"indices":12}]},{"primitives":[{"mode":4,"attributes":{"POSITION":17,"NORMAL":18,"TEXCOORD_0":19},"material":11,"indices":16}]},{"primitives":[{"mode":4,"attributes":{"POSITION":21,"NORMAL":22,"TEXCOORD_0":23},"material":12,"indices":20}]},{"primitives":[{"mode":4,"attributes":{"POSITION":21,"NORMAL":22,"TEXCOORD_0":23},"material":13,"indices":20}]},{"primitives":[{"mode":4,"attributes":{"POSITION":25,"NORMAL":26,"TEXCOORD_0":27},"material":14,"indices":24}]},{"primitives":[{"mode":4,"attributes":{"POSITION":29,"NORMAL":30,"TEXCOORD_0":31},"material":15,"indices":28}]}],"accessors":[{"bufferView":0,"byteOffset":0,"componentType":5125,"count":6912,"type":"SCALAR"},{"bufferView":1,"byteOffset":0,"componentType":5126,"count":1432,"max":[6,3,6],"min":[-6,-3,-6],"type":"VEC3"},{"bufferView":2,"byteOffset":0,"componentType":5126,"count":1432,"type":"VEC3"},{"bufferView":3,"byteOffset":0,"componentType":5126,"count":1432,"type":"VEC2"},{"bufferView":4,"byteOffset":0,"componentType":5125,"count":1464,"type":"SCALAR"},{"bufferView":5,"byteOffset":0,"componentType":5126,"count":492,"max":[9.078125,7.649890899658203,2],"min":[-9.078125,-8.227241516113281,0],"type":"VEC3"},{"bufferView":6,"byteOffset":0,"componentType":5126,"count":492,"type":"VEC3"},{"bufferView":7,"byteOffset":0,"componentType":5126,"count":492,"type":"VEC2"},{"bufferView":8,"byteOffset":0,"componentType":5125,"count":1956,"type":"SCALAR"},{"bufferView":9,"byteOffset":0,"componentType":5126,"count":656,"max":[20,4,2],"min":[-20,-4,0],"type":"VEC3"},{"bufferView":10,"byteOffset":0,"componentType":5126,"count":656,"type":"VEC3"},{"bufferView":11,"byteOffset":0,"componentType":5126,"count":656,"type":"VEC2"},{"bufferView":12,"byteOffset":0,"componentType":5125,"count":756,"type":"SCALAR"},{"bufferView":13,"byteOffset":0,"componentType":5126,"count":256,"max":[10.5,10.5,2],"min":[-10.5,-10.5,0],"type":"VEC3"},{"bufferView":14,"byteOffset":0,"componentType":5126,"count":256,"type":"VEC3"},{"bufferView":15,"byteOffset":0,"componentType":5126,"count":256,"type":"VEC2"},{"bufferView":16,"byteOffset":0,"componentType":5125,"count":1956,"type":"SCALAR"},{"bufferView":17,"byteOffset":0,"componentType":5126,"count":656,"max":[10.5,14,2],"min":[-10.5,-14,0],"type":"VEC3"},{"bufferView":18,"byteOffset":0,"componentType":5126,"count":656,"type":"VEC3"},{"bufferView":19,"byteOffset":0,"componentType":5126,"count":656,"type":"VEC2"},{"bufferView":20,"byteOffset":0,"componentType":5125,"count":768,"type":"SCALAR"},{"bufferView":21,"byteOffset":0,"componentType":5126,"count":262,"max":[2,16.5,2],"min":[-2,-16.5,-2],"type":"VEC3"},{"bufferView":22,"byteOffset":0,"componentType":5126,"count":262,"type":"VEC3"},{"bufferView":23,"byteOffset":0,"componentType":5126,"count":262,"type":"VEC2"},{"bufferView":24,"byteOffset":0,"componentType":5125,"count":2880,"type":"SCALAR"},{"bufferView":25,"byteOffset":0,"componentType":5126,"count":1414,"max":[23.70377540588379,4.620480537414551,4.6875],"min":[-23.692781448364258,-8.40350341796875,-4.6875],"type":"VEC3"},{"bufferView":26,"byteOffset":0,"componentType":5126,"count":1414,"type":"VEC3"},{"bufferView":27,"byteOffset":0,"componentType":5126,"count":1414,"type":"VEC2"},{"bufferView":28,"byteOffset":0,"componentType":5125,"count":13632,"type":"SCALAR"},{"bufferView":29,"byteOffset":0,"componentType":5126,"count":6540,"max":[45.91685485839844,61.23683166503906,33.53849411010742],"min":[-45.919647216796875,-60.22916030883789,-33.53849411010742],"type":"VEC3"},{"bufferView":30,"byteOffset":0,"componentType":5126,"count":6540,"type":"VEC3"},{"bufferView":31,"byteOffset":0,"componentType":5126,"count":6540,"type":"VEC2"}],"bufferViews":[{"buffer":0,"byteOffset":0,"byteLength":27648,"target":34963},{"buffer":0,"byteOffset":27648,"byteLength":17184,"target":34962},{"buffer":0,"byteOffset":44832,"byteLength":17184,"target":34962},{"buffer":0,"byteOffset":62016,"byteLength":11456,"target":34962},{"buffer":0,"byteOffset":73472,"byteLength":5856,"target":34963},{"buffer":0,"byteOffset":79328,"byteLength":5904,"target":34962},{"buffer":0,"byteOffset":85232,"byteLength":5904,"target":34962},{"buffer":0,"byteOffset":91136,"byteLength":3936,"target":34962},{"buffer":0,"byteOffset":95072,"byteLength":7824,"target":34963},{"buffer":0,"byteOffset":102896,"byteLength":7872,"target":34962},{"buffer":0,"byteOffset":110768,"byteLength":7872,"target":34962},{"buffer":0,"byteOffset":118640,"byteLength":5248,"target":34962},{"buffer":0,"byteOffset":123888,"byteLength":3024,"target":34963},{"buffer":0,"byteOffset":126912,"byteLength":3072,"target":34962},{"buffer":0,"byteOffset":129984,"byteLength":3072,"target":34962},{"buffer":0,"byteOffset":133056,"byteLength":2048,"target":34962},{"buffer":0,"byteOffset":135104,"byteLength":7824,"target":34963},{"buffer":0,"byteOffset":142928,"byteLength":7872,"target":34962},{"buffer":0,"byteOffset":150800,"byteLength":7872,"target":34962},{"buffer":0,"byteOffset":158672,"byteLength":5248,"target":34962},{"buffer":0,"byteOffset":163920,"byteLength":3072,"target":34963},{"buffer":0,"byteOffset":166992,"byteLength":3144,"target":34962},{"buffer":0,"byteOffset":170136,"byteLength":3144,"target":34962},{"buffer":0,"byteOffset":173280,"byteLength":2096,"target":34962},{"buffer":0,"byteOffset":175376,"byteLength":11520,"target":34963},{"buffer":0,"byteOffset":186896,"byteLength":16968,"target":34962},{"buffer":0,"byteOffset":203864,"byteLength":16968,"target":34962},{"buffer":0,"byteOffset":220832,"byteLength":11312,"target":34962},{"buffer":0,"byteOffset":232144,"byteLength":54528,"target":34963},{"buffer":0,"byteOffset":286672,"byteLength":78480,"target":34962},{"buffer":0,"byteOffset":365152,"byteLength":78480,"target":34962},{"buffer":0,"byteOffset":443632,"byteLength":52320,"target":34962}],"scene":0,"scenes":[{"nodes":[0],"name":"Suitcase"}],"extensionsUsed":["KHR_texture_transform"],"buffers":[{"byteLength":495952,"uri":"Suitcase.bin"}]}