{"asset":{"version":"2.0","generator":"VECTARY"},"nodes":[{"translation":[0,0,0],"scale":[0.009007226864746616,0.009007226864746611,0.009007226864746611],"rotation":[0,0,0,1],"name":"Lifebuoy","children":[1,2,3,4,5,6,7,8]},{"translation":[0,0,0],"scale":[1,1,1],"rotation":[0,0,-0.1305261922200516,0.9914448613738103],"name":"Torus 8","mesh":0},{"translation":[0,0,0],"scale":[1,1,1],"rotation":[0,0,-0.7933533402912354,0.6087614290087203],"name":"Torus 6","mesh":1},{"translation":[0,0,0],"scale":[1,1,1],"rotation":[0,0,0.9914448613738104,0.1305261922200517],"name":"Torus 4","mesh":2},{"translation":[0,0,0],"scale":[1,1,1],"rotation":[0,0,0.6087614290087205,0.7933533402912353],"name":"Torus 2","mesh":3},{"translation":[0,0,0],"scale":[1,1,1],"rotation":[0,0,-0.5000000000000001,0.8660254037844385],"name":"Torus 7","mesh":4},{"translation":[0,0,0],"scale":[0.9999999999999999,0.9999999999999999,1],"rotation":[0,0,0.9659258262890684,-0.2588190451025206],"name":"Torus 5","mesh":5},{"translation":[0,0,0],"scale":[1,1,1],"rotation":[0,0,0.8660254037844386,0.5000000000000001],"name":"Torus 3","mesh":6},{"translation":[0,0,0],"scale":[1,1,1],"rotation":[0,0,0.2588190451025207,0.9659258262890684],"name":"Torus","mesh":7}],"materials":[{"pbrMetallicRoughness":{"baseColorFactor":[0.267358060183772,0.15415226081216515,0.5479935021969718,1],"metallicFactor":0,"roughnessFactor":0.2},"name":"Kathmandu 1","emissiveFactor":[0,0,0],"extensions":{},"alphaMode":"OPAQUE","doubleSided":false},{"pbrMetallicRoughness":{"baseColorFactor":[0.267358060183772,0.15415226081216515,0.5479935021969718,1],"metallicFactor":0,"roughnessFactor":0.2},"name":"Kingdom 1","emissiveFactor":[0,0,0],"extensions":{},"alphaMode":"OPAQUE","doubleSided":false},{"pbrMetallicRoughness":{"baseColorFactor":[0.267358060183772,0.15415226081216515,0.5479935021969718,1],"metallicFactor":0,"roughnessFactor":0.2},"name":"Hurricane 1","emissiveFactor":[0,0,0],"extensions":{},"alphaMode":"OPAQUE","doubleSided":false},{"pbrMetallicRoughness":{"baseColorFactor":[0.267358060183772,0.15415226081216515,0.5479935021969718,1],"metallicFactor":0,"roughnessFactor":0.2},"name":"Brooklyn 1","emissiveFactor":[0,0,0],"extensions":{},"alphaMode":"OPAQUE","doubleSided":false},{"pbrMetallicRoughness":{"baseColorFactor":[0.5668097348966382,0.39408312608282897,0.8355277914608409,1],"metallicFactor":0,"roughnessFactor":0.2},"name":"Reflection 1","emissiveFactor":[0,0,0],"extensions":{},"alphaMode":"OPAQUE","doubleSided":false},{"pbrMetallicRoughness":{"baseColorFactor":[0.5668097348966382,0.39408312608282897,0.8355277914608409,1],"metallicFactor":0,"roughnessFactor":0.2},"name":"Kimono 1","emissiveFactor":[0,0,0],"extensions":{},"alphaMode":"OPAQUE","doubleSided":false},{"pbrMetallicRoughness":{"baseColorFactor":[0.5668097348966382,0.39408312608282897,0.8355277914608409,1],"metallicFactor":0,"roughnessFactor":0.2},"name":"London 1","emissiveFactor":[0,0,0],"extensions":{},"alphaMode":"OPAQUE","doubleSided":false},{"pbrMetallicRoughness":{"baseColorFactor":[0.5668097348966382,0.39408312608282897,0.8355277914608409,1],"metallicFactor":0,"roughnessFactor":0.2},"name":"Zanzibar 1","emissiveFactor":[0,0,0],"extensions":{},"alphaMode":"OPAQUE","doubleSided":false}],"meshes":[{"primitives":[{"mode":4,"attributes":{"POSITION":1,"NORMAL":2,"TEXCOORD_0":3},"material":0,"indices":0}]},{"primitives":[{"mode":4,"attributes":{"POSITION":1,"NORMAL":2,"TEXCOORD_0":3},"material":1,"indices":0}]},{"primitives":[{"mode":4,"attributes":{"POSITION":1,"NORMAL":2,"TEXCOORD_0":3},"material":2,"indices":0}]},{"primitives":[{"mode":4,"attributes":{"POSITION":1,"NORMAL":2,"TEXCOORD_0":3},"material":3,"indices":0}]},{"primitives":[{"mode":4,"attributes":{"POSITION":1,"NORMAL":2,"TEXCOORD_0":3},"material":4,"indices":0}]},{"primitives":[{"mode":4,"attributes":{"POSITION":1,"NORMAL":2,"TEXCOORD_0":3},"material":5,"indices":0}]},{"primitives":[{"mode":4,"attributes":{"POSITION":1,"NORMAL":2,"TEXCOORD_0":3},"material":6,"indices":0}]},{"primitives":[{"mode":4,"attributes":{"POSITION":1,"NORMAL":2,"TEXCOORD_0":3},"material":7,"indices":0}]}],"accessors":[{"bufferView":0,"byteOffset":0,"componentType":5125,"count":1728,"type":"SCALAR"},{"bufferView":1,"byteOffset":0,"componentType":5126,"count":361,"max":[0.009999999776482582,85.5,24.000499725341797],"min":[-60.4576301574707,26.516504287719727,-24.000499725341797],"type":"VEC3"},{"bufferView":2,"byteOffset":0,"componentType":5126,"count":361,"type":"VEC3"},{"bufferView":3,"byteOffset":0,"componentType":5126,"count":361,"type":"VEC2"}],"bufferViews":[{"buffer":0,"byteOffset":0,"byteLength":6912,"target":34963},{"buffer":0,"byteOffset":6912,"byteLength":4332,"target":34962},{"buffer":0,"byteOffset":11244,"byteLength":4332,"target":34962},{"buffer":0,"byteOffset":15576,"byteLength":2888,"target":34962}],"scene":0,"scenes":[{"nodes":[0],"name":"Lifebuoy"}],"extensionsUsed":["KHR_texture_transform"],"buffers":[{"byteLength":18464,"uri":"Lifebuoy.bin"}]}