{"asset":{"version":"2.0","generator":"VECTARY"},"nodes":[{"translation":[-5.684341886080802e-17,0,0],"scale":[0.015130462995612952,0.015130462995612961,0.015130462995612957],"rotation":[-0.7071067811865475,2.7755575615628914e-17,-0.3641869153381644,0.6061088109378322],"name":"Rubik's cube","children":[1,2,3,4,5,6,7,8]},{"translation":[-0.04661440671183708,-37.30116972949044,-0.5572781694650644],"scale":[0.6232943423503152,0.6232943423503152,0.6232943423503152],"rotation":[0,0,0,1],"name":"Cube 5","mesh":0},{"translation":[-0.04661440671183708,0.11358912899909841,-0.5572781694650644],"scale":[0.6232943423503152,0.6232943423503152,0.6232943423503152],"rotation":[0,0,0,1],"name":"Cube 4","mesh":1},{"translation":[-37.37135923844745,-37.30116972949044,-0.5572781694650644],"scale":[0.6232943423503152,0.6232943423503152,0.6232943423503152],"rotation":[0,0,0,1],"name":"Cube 5","mesh":2},{"translation":[-37.37135923844745,0.11358912899909841,-0.5572781694650644],"scale":[0.6232943423503152,0.6232943423503152,0.6232943423503152],"rotation":[0,0,0,1],"name":"Cube 4","mesh":3},{"translation":[-0.04661440671183708,-37.30116972949044,37.31911742453616],"scale":[0.6232943423503152,0.6232943423503152,0.6232943423503152],"rotation":[0,0,0,1],"name":"Cube 5","mesh":4},{"translation":[-37.37135923844745,-37.30116972949038,37.31911742453616],"scale":[0.6232943423503152,0.6232943423503152,0.6232943423503152],"rotation":[0,0,0,1],"name":"Cube 5","mesh":5},{"translation":[-37.37135923844745,0.11358912899915526,37.31911742453616],"scale":[0.6232943423503152,0.6232943423503152,0.6232943423503152],"rotation":[0,0,0,1],"name":"Cube 4","mesh":6},{"translation":[-0.04661440671183708,0.11358912899909841,37.31911742453616],"scale":[0.6232943423503152,0.6232943423503152,0.6232943423503152],"rotation":[0,0,0,1],"name":"Cube 4","mesh":7}],"materials":[{"pbrMetallicRoughness":{"baseColorFactor":[0.267358060183772,0.15415226081216515,0.5479935021969718,1],"metallicFactor":0,"roughnessFactor":0.2},"name":"Bubble","emissiveFactor":[0,0,0],"extensions":{},"alphaMode":"OPAQUE","doubleSided":false},{"pbrMetallicRoughness":{"baseColorFactor":[0.267358060183772,0.15415226081216515,0.5479935021969718,1],"metallicFactor":0,"roughnessFactor":0.2},"name":"Columbia","emissiveFactor":[0,0,0],"extensions":{},"alphaMode":"OPAQUE","doubleSided":false},{"pbrMetallicRoughness":{"baseColorFactor":[0.267358060183772,0.15415226081216515,0.5479935021969718,1],"metallicFactor":0,"roughnessFactor":0.2},"name":"Bright Idea","emissiveFactor":[0,0,0],"extensions":{},"alphaMode":"OPAQUE","doubleSided":false},{"pbrMetallicRoughness":{"baseColorFactor":[0.267358060183772,0.15415226081216515,0.5479935021969718,1],"metallicFactor":0,"roughnessFactor":0.2},"name":"Play Time","emissiveFactor":[0,0,0],"extensions":{},"alphaMode":"OPAQUE","doubleSided":false},{"pbrMetallicRoughness":{"baseColorFactor":[0.267358060183772,0.15415226081216515,0.5479935021969718,1],"metallicFactor":0,"roughnessFactor":0.2},"name":"Melissa","emissiveFactor":[0,0,0],"extensions":{},"alphaMode":"OPAQUE","doubleSided":false},{"pbrMetallicRoughness":{"baseColorFactor":[0.267358060183772,0.15415226081216515,0.5479935021969718,1],"metallicFactor":0,"roughnessFactor":0.2},"name":"Exotic Life","emissiveFactor":[0,0,0],"extensions":{},"alphaMode":"OPAQUE","doubleSided":false},{"pbrMetallicRoughness":{"baseColorFactor":[0.267358060183772,0.15415226081216515,0.5479935021969718,1],"metallicFactor":0,"roughnessFactor":0.2},"name":"Scenario","emissiveFactor":[0,0,0],"extensions":{},"alphaMode":"OPAQUE","doubleSided":false},{"pbrMetallicRoughness":{"baseColorFactor":[0.5668097348966382,0.39408312608282897,0.8355277914608409,1],"metallicFactor":0,"roughnessFactor":0.2},"name":"Antique","emissiveFactor":[0,0,0],"extensions":{},"alphaMode":"OPAQUE","doubleSided":false}],"meshes":[{"primitives":[{"mode":4,"attributes":{"POSITION":1,"NORMAL":2,"TEXCOORD_0":3},"material":0,"indices":0}]},{"primitives":[{"mode":4,"attributes":{"POSITION":1,"NORMAL":2,"TEXCOORD_0":3},"material":1,"indices":0}]},{"primitives":[{"mode":4,"attributes":{"POSITION":1,"NORMAL":2,"TEXCOORD_0":3},"material":2,"indices":0}]},{"primitives":[{"mode":4,"attributes":{"POSITION":1,"NORMAL":2,"TEXCOORD_0":3},"material":3,"indices":0}]},{"primitives":[{"mode":4,"attributes":{"POSITION":1,"NORMAL":2,"TEXCOORD_0":3},"material":4,"indices":0}]},{"primitives":[{"mode":4,"attributes":{"POSITION":1,"NORMAL":2,"TEXCOORD_0":3},"material":5,"indices":0}]},{"primitives":[{"mode":4,"attributes":{"POSITION":1,"NORMAL":2,"TEXCOORD_0":3},"material":6,"indices":0}]},{"primitives":[{"mode":4,"attributes":{"POSITION":1,"NORMAL":2,"TEXCOORD_0":3},"material":7,"indices":0}]}],"accessors":[{"bufferView":0,"byteOffset":0,"componentType":5125,"count":2148,"type":"SCALAR"},{"bufferView":1,"byteOffset":0,"componentType":5126,"count":528,"max":[30,30,30],"min":[-30,-30,-30],"type":"VEC3"},{"bufferView":2,"byteOffset":0,"componentType":5126,"count":528,"type":"VEC3"},{"bufferView":3,"byteOffset":0,"componentType":5126,"count":528,"type":"VEC2"}],"bufferViews":[{"buffer":0,"byteOffset":0,"byteLength":8592,"target":34963},{"buffer":0,"byteOffset":8592,"byteLength":6336,"target":34962},{"buffer":0,"byteOffset":14928,"byteLength":6336,"target":34962},{"buffer":0,"byteOffset":21264,"byteLength":4224,"target":34962}],"scene":0,"scenes":[{"nodes":[0],"name":"Rubiks Cube"}],"extensionsUsed":["KHR_texture_transform"],"buffers":[{"byteLength":25488,"uri":"RubiksCube.bin"}]}