{"asset":{"version":"2.0","generator":"VECTARY"},"nodes":[{"translation":[0,0,0],"scale":[0.01,0.010000000000000005,0.010000000000000005],"rotation":[0.1553813284067791,0.5137492779520791,0.09521780050990383,0.838362625987298],"name":"wifi","children":[1,2,3,4,5,6,7,8,9,10,11,12,13,14,15,16,17,18,19,20,21,22,23]},{"translation":[-42.40562479134632,-16.113764965733026,33.97455211538023],"scale":[1.2121830534626536,1.21218305346265,1.2121830534626536],"rotation":[8.000390764101651e-17,0.9238795325112867,8.000390764101651e-17,0.3826834323650899],"name":"Cylinder 14","mesh":0},{"translation":[-42.49046551976641,-16.05291074177967,33.89724097501795],"scale":[1.2121830534626497,1.21218305346265,1.2121830534626497],"rotation":[8.000390764101651e-17,0.9238795325112866,8.000390764101652e-17,0.3826834323650901],"name":"Cylinder 13","mesh":1},{"translation":[-42.47558419822371,-16.18172828985928,31.78909356145289],"scale":[1.2121830534626499,1.2121830534627362,1.2121830534627362],"rotation":[0,0,0,1],"name":"Cylinder 12","mesh":2},{"translation":[23.30098497826475,-19.383552629017228,-10.513724133251003],"scale":[1,1.0000000000000002,1.0000000000000002],"rotation":[-0.7071067811865475,0,0,0.7071067811865476],"name":"Rectangle 8","mesh":3},{"translation":[13.741166983902872,-19.38355262901723,-10.513724133251003],"scale":[1,1.0000000000000002,1.0000000000000002],"rotation":[-0.7071067811865475,0,0,0.7071067811865476],"name":"Rectangle 7","mesh":4},{"translation":[4.119100171003879,-19.38355262901723,-10.513724133251001],"scale":[1,1.0000000000000002,1.0000000000000002],"rotation":[-0.7071067811865475,0,0,0.7071067811865476],"name":"Rectangle 6","mesh":5},{"translation":[-5.447497390278272,-19.38355262901723,-10.513724133251005],"scale":[1,1.0000000000000002,1.0000000000000002],"rotation":[-0.7071067811865475,0,0,0.7071067811865476],"name":"Rectangle 5","mesh":6},{"translation":[-14.712095671968656,-19.38355262901723,-10.513724133251001],"scale":[1,1.0000000000000002,1.0000000000000002],"rotation":[-0.7071067811865475,0,0,0.7071067811865476],"name":"Rectangle 4","mesh":7},{"translation":[-23.682090589887025,-19.383552629017235,-10.513724133251003],"scale":[1,1.0000000000000002,1.0000000000000002],"rotation":[-0.7071067811865475,0,0,0.7071067811865476],"name":"Rectangle 3","mesh":8},{"translation":[53.326451836960025,-17.121195172892957,29.637783459218497],"scale":[1,1,1],"rotation":[0,0,0,1],"name":"Cylinder 11","mesh":9},{"translation":[53.48923592979101,-33.905495759748426,43.58324888880986],"scale":[-0.7510123955047165,0.7510123955047664,0.7510123955047664],"rotation":[4.3297802811774646e-17,0.7071067811865474,0.7071067811865477,-4.329780281177467e-17],"name":"Cylinder 10","mesh":10},{"translation":[39.69049150528791,-33.90549575974841,43.58324888880985],"scale":[-0.7510123955047168,0.7510123955047584,0.7510123955047584],"rotation":[4.329780281177467e-17,0.7071067811865475,0.7071067811865476,-4.3297802811774664e-17],"name":"Cylinder 9","mesh":11},{"translation":[25.24592305795636,-33.90549575974841,43.583248888809855],"scale":[-0.7510123955047165,0.7510123955047517,0.7510123955047517],"rotation":[4.329780281177464e-17,0.7071067811865474,0.7071067811865477,-4.329780281177469e-17],"name":"Cylinder 8","mesh":12},{"translation":[10.779632222291296,-33.90549575974842,43.58324888880986],"scale":[-0.7510123955047163,0.751012395504738,0.751012395504738],"rotation":[4.3297802811774646e-17,0.7071067811865474,0.7071067811865477,-4.329780281177467e-17],"name":"Cylinder 7","mesh":13},{"translation":[-3.532513034218368,-33.905495759748426,43.58324888880987],"scale":[-0.7510123955047168,0.7510123955047341,0.7510123955047341],"rotation":[4.329780281177467e-17,0.7071067811865475,0.7071067811865476,-4.329780281177467e-17],"name":"Cylinder 6","mesh":14},{"translation":[-44.04798907615851,-33.905495759748426,43.58324888880986],"scale":[-0.7510123955047168,0.7510123955047334,0.7510123955047334],"rotation":[4.3297802811774664e-17,0.7071067811865474,0.7071067811865476,-4.329780281177467e-17],"name":"Cylinder 5","mesh":15},{"translation":[34.40579610422208,-15.839034733680357,-36.47805163811688],"scale":[0.6535067280302485,0.7329999648629651,0.6517228810472254],"rotation":[-0.043590118553931786,0.006376333076295866,-0.1318368391420213,0.9902920234890288],"name":"Cylinder 4","mesh":16},{"translation":[-34.79887656165351,-16.25519994293426,-36.47805163811687],"scale":[0.6521261334271733,0.7315135083318199,0.6517262384142642],"rotation":[-0.04394906775601039,-0.0042881934746162335,0.08812866154011215,0.9951298557752402],"name":"Cylinder 2","mesh":17},{"translation":[42.761407524203825,16.079693484685546,-39.249779452645555],"scale":[0.6535067280302485,0.7329999648629651,0.6517228810472254],"rotation":[-0.043590118553931786,0.006376333076295866,-0.1318368391420213,0.9902920234890288],"name":"Cylinder 4","mesh":18},{"translation":[-40.71555830289139,16.204225967770746,-39.24977945264555],"scale":[0.6521261334271733,0.7315135083318199,0.6517262384142642],"rotation":[-0.04394906775601039,-0.0042881934746162335,0.08812866154011215,0.9951298557752402],"name":"Cylinder 3","mesh":19},{"translation":[31.342441122604786,-26.536469296003922,-35.647955959686094],"scale":[0.6535067280302485,0.7329999648629651,0.6517228810472254],"rotation":[-0.043590118553931786,0.006376333076295866,-0.1318368391420213,0.9902920234890288],"name":"Cylinder 4","mesh":20},{"translation":[-33.0542878361366,-27.244997945508995,-35.647955959686094],"scale":[0.6521261334271733,0.7315135083318199,0.6517262384142642],"rotation":[-0.04394906775601039,-0.0042881934746162335,0.08812866154011215,0.9951298557752402],"name":"Cylinder","mesh":21},{"translation":[0.405624791346213,-48.77385535072984,6.036932814452825],"scale":[1,1.0000000000000002,1.0000000000000002],"rotation":[-0.7071067811865475,0,0,0.7071067811865476],"name":"Rectangle 2","mesh":22}],"materials":[{"pbrMetallicRoughness":{"baseColorFactor":[0.5668097348966382,0.39408312608282897,0.8355277914608409,1],"metallicFactor":0,"roughnessFactor":0.2},"name":"California Dream","emissiveFactor":[0,0,0],"extensions":{},"alphaMode":"OPAQUE","doubleSided":false},{"pbrMetallicRoughness":{"baseColorFactor":[0.5668097348966382,0.39408312608282897,0.8355277914608409,1],"metallicFactor":0,"roughnessFactor":0.2},"name":"Blaze","emissiveFactor":[0,0,0],"extensions":{},"alphaMode":"OPAQUE","doubleSided":false},{"pbrMetallicRoughness":{"baseColorFactor":[0.5668097348966382,0.39408312608282897,0.8355277914608409,1],"metallicFactor":0,"roughnessFactor":0.2},"name":"Opera","emissiveFactor":[0,0,0],"extensions":{},"alphaMode":"OPAQUE","doubleSided":false},{"pbrMetallicRoughness":{"baseColorFactor":[0.5668097348966382,0.39408312608282897,0.8355277914608409,1],"metallicFactor":0,"roughnessFactor":0.2},"name":"Lonely Road","emissiveFactor":[0,0,0],"extensions":{},"alphaMode":"OPAQUE","doubleSided":false},{"pbrMetallicRoughness":{"baseColorFactor":[0.6320426176206414,0.5234431552143247,0.24279635325400195,1],"metallicFactor":0,"roughnessFactor":0.2},"name":"Colorado","emissiveFactor":[0,0,0],"extensions":{},"alphaMode":"OPAQUE","doubleSided":false},{"pbrMetallicRoughness":{"baseColorFactor":[0.8277257944550337,0.38891025653905886,1,1],"metallicFactor":0,"roughnessFactor":0.2},"name":"Light Glaze","emissiveFactor":[0,0,0],"extensions":{},"alphaMode":"OPAQUE","doubleSided":false},{"pbrMetallicRoughness":{"baseColorFactor":[0.5668097348966382,0.39408312608282897,0.8355277914608409,1],"metallicFactor":0,"roughnessFactor":0.2},"name":"Solar Fusion","emissiveFactor":[0,0,0],"extensions":{},"alphaMode":"OPAQUE","doubleSided":false},{"pbrMetallicRoughness":{"baseColorFactor":[0.6320426176206414,0.5234431552143247,0.24279635325400195,1],"metallicFactor":0,"roughnessFactor":0.2},"name":"Perfect Tint","emissiveFactor":[0,0,0],"extensions":{},"alphaMode":"OPAQUE","doubleSided":false},{"pbrMetallicRoughness":{"baseColorFactor":[0.8277257944550337,0.38891025653905886,1,1],"metallicFactor":0,"roughnessFactor":0.2},"name":"Butterfly Wing","emissiveFactor":[0,0,0],"extensions":{},"alphaMode":"OPAQUE","doubleSided":false},{"pbrMetallicRoughness":{"baseColorFactor":[0.598941789493296,0.3392233349353267,0.6800203421720954,1],"metallicFactor":0,"roughnessFactor":0.2},"name":"Mystic Harbor","emissiveFactor":[0,0,0],"extensions":{},"alphaMode":"OPAQUE","doubleSided":false},{"pbrMetallicRoughness":{"baseColorFactor":[0.5924380303208466,0.5924380303208466,0.8912620368134188,1],"metallicFactor":0,"roughnessFactor":0.2},"name":"Charming Nature","emissiveFactor":[0,0,0],"extensions":{},"alphaMode":"OPAQUE","doubleSided":false},{"pbrMetallicRoughness":{"baseColorFactor":[0.5924380303208466,0.5924380303208466,0.8912620368134188,1],"metallicFactor":0,"roughnessFactor":0.2},"name":"Skyla","emissiveFactor":[0,0,0],"extensions":{},"alphaMode":"OPAQUE","doubleSided":false},{"pbrMetallicRoughness":{"baseColorFactor":[0.5924380303208466,0.5924380303208466,0.8912620368134188,1],"metallicFactor":0,"roughnessFactor":0.2},"name":"Lunar Dust","emissiveFactor":[0,0,0],"extensions":{},"alphaMode":"OPAQUE","doubleSided":false},{"pbrMetallicRoughness":{"baseColorFactor":[0.5924380303208466,0.5924380303208466,0.8912620368134188,1],"metallicFactor":0,"roughnessFactor":0.2},"name":"Beyond the Pines","emissiveFactor":[0,0,0],"extensions":{},"alphaMode":"OPAQUE","doubleSided":false},{"pbrMetallicRoughness":{"baseColorFactor":[0.5924380303208466,0.5924380303208466,0.8912620368134188,1],"metallicFactor":0,"roughnessFactor":0.2},"name":"Abyss","emissiveFactor":[0,0,0],"extensions":{},"alphaMode":"OPAQUE","doubleSided":false},{"pbrMetallicRoughness":{"baseColorFactor":[0.8277257944550337,0.38891025653905886,1,1],"metallicFactor":0,"roughnessFactor":0.2},"name":"Habanero","emissiveFactor":[0,0,0],"extensions":{},"alphaMode":"OPAQUE","doubleSided":false},{"pbrMetallicRoughness":{"baseColorFactor":[0.8277257944550337,0.38891025653905886,1,1],"metallicFactor":0,"roughnessFactor":0.2},"name":"City Park","emissiveFactor":[0,0,0],"extensions":{},"alphaMode":"OPAQUE","doubleSided":false},{"pbrMetallicRoughness":{"baseColorFactor":[0.8277257944550337,0.38891025653905886,1,1],"metallicFactor":0,"roughnessFactor":0.2},"name":"Harlequin","emissiveFactor":[0,0,0],"extensions":{},"alphaMode":"OPAQUE","doubleSided":false},{"pbrMetallicRoughness":{"baseColorFactor":[0.5668097348966382,0.39408312608282897,0.8355277914608409,1],"metallicFactor":0,"roughnessFactor":0.2},"name":"Emerald Dream","emissiveFactor":[0,0,0],"extensions":{},"alphaMode":"OPAQUE","doubleSided":false},{"pbrMetallicRoughness":{"baseColorFactor":[0.5668097348966382,0.39408312608282897,0.8355277914608409,1],"metallicFactor":0,"roughnessFactor":0.2},"name":"Bombay","emissiveFactor":[0,0,0],"extensions":{},"alphaMode":"OPAQUE","doubleSided":false},{"pbrMetallicRoughness":{"baseColorFactor":[0.5668097348966382,0.39408312608282897,0.8355277914608409,1],"metallicFactor":0,"roughnessFactor":0.2},"name":"Kimberly","emissiveFactor":[0,0,0],"extensions":{},"alphaMode":"OPAQUE","doubleSided":false},{"pbrMetallicRoughness":{"baseColorFactor":[0.5668097348966382,0.39408312608282897,0.8355277914608409,1],"metallicFactor":0,"roughnessFactor":0.2},"name":"Medusa","emissiveFactor":[0,0,0],"extensions":{},"alphaMode":"OPAQUE","doubleSided":false},{"pbrMetallicRoughness":{"baseColorFactor":[0.267358060183772,0.15415226081216515,0.5479935021969718,1],"metallicFactor":0,"roughnessFactor":0.2},"name":"Garden Glory","emissiveFactor":[0,0,0],"extensions":{},"alphaMode":"OPAQUE","doubleSided":false}],"meshes":[{"primitives":[{"mode":4,"attributes":{"POSITION":1,"NORMAL":2,"TEXCOORD_0":3},"material":0,"indices":0}]},{"primitives":[{"mode":4,"attributes":{"POSITION":5,"NORMAL":6,"TEXCOORD_0":7},"material":1,"indices":4}]},{"primitives":[{"mode":4,"attributes":{"POSITION":9,"NORMAL":10,"TEXCOORD_0":11},"material":2,"indices":8}]},{"primitives":[{"mode":4,"attributes":{"POSITION":13,"NORMAL":14,"TEXCOORD_0":15},"material":3,"indices":12}]},{"primitives":[{"mode":4,"attributes":{"POSITION":13,"NORMAL":14,"TEXCOORD_0":15},"material":4,"indices":12}]},{"primitives":[{"mode":4,"attributes":{"POSITION":13,"NORMAL":14,"TEXCOORD_0":15},"material":5,"indices":12}]},{"primitives":[{"mode":4,"attributes":{"POSITION":13,"NORMAL":14,"TEXCOORD_0":15},"material":6,"indices":12}]},{"primitives":[{"mode":4,"attributes":{"POSITION":13,"NORMAL":14,"TEXCOORD_0":15},"material":7,"indices":12}]},{"primitives":[{"mode":4,"attributes":{"POSITION":13,"NORMAL":14,"TEXCOORD_0":15},"material":8,"indices":12}]},{"primitives":[{"mode":4,"attributes":{"POSITION":17,"NORMAL":18,"TEXCOORD_0":19},"material":9,"indices":16}]},{"primitives":[{"mode":4,"attributes":{"POSITION":21,"NORMAL":22,"TEXCOORD_0":23},"material":10,"indices":20}]},{"primitives":[{"mode":4,"attributes":{"POSITION":21,"NORMAL":22,"TEXCOORD_0":23},"material":11,"indices":20}]},{"primitives":[{"mode":4,"attributes":{"POSITION":21,"NORMAL":22,"TEXCOORD_0":23},"material":12,"indices":20}]},{"primitives":[{"mode":4,"attributes":{"POSITION":21,"NORMAL":22,"TEXCOORD_0":23},"material":13,"indices":20}]},{"primitives":[{"mode":4,"attributes":{"POSITION":21,"NORMAL":22,"TEXCOORD_0":23},"material":14,"indices":20}]},{"primitives":[{"mode":4,"attributes":{"POSITION":25,"NORMAL":26,"TEXCOORD_0":27},"material":15,"indices":24}]},{"primitives":[{"mode":4,"attributes":{"POSITION":29,"NORMAL":30,"TEXCOORD_0":31},"material":16,"indices":28}]},{"primitives":[{"mode":4,"attributes":{"POSITION":29,"NORMAL":30,"TEXCOORD_0":31},"material":17,"indices":28}]},{"primitives":[{"mode":4,"attributes":{"POSITION":33,"NORMAL":34,"TEXCOORD_0":35},"material":18,"indices":32}]},{"primitives":[{"mode":4,"attributes":{"POSITION":33,"NORMAL":34,"TEXCOORD_0":35},"material":19,"indices":32}]},{"primitives":[{"mode":4,"attributes":{"POSITION":37,"NORMAL":38,"TEXCOORD_0":39},"material":20,"indices":36}]},{"primitives":[{"mode":4,"attributes":{"POSITION":37,"NORMAL":38,"TEXCOORD_0":39},"material":21,"indices":36}]},{"primitives":[{"mode":4,"attributes":{"POSITION":41,"NORMAL":42,"TEXCOORD_0":43},"material":22,"indices":40}]}],"accessors":[{"bufferView":0,"byteOffset":0,"componentType":5125,"count":14040,"type":"SCALAR"},{"bufferView":1,"byteOffset":0,"componentType":5126,"count":2674,"max":[14,1.5,14],"min":[0,-1.5,7.029472430913051e-16],"type":"VEC3"},{"bufferView":2,"byteOffset":0,"componentType":5126,"count":2674,"type":"VEC3"},{"bufferView":3,"byteOffset":0,"componentType":5126,"count":2674,"type":"VEC2"},{"bufferView":4,"byteOffset":0,"componentType":5125,"count":14040,"type":"SCALAR"},{"bufferView":5,"byteOffset":0,"componentType":5126,"count":2674,"max":[8,1.5,8],"min":[0,-1.5,3.4779969554627583e-16],"type":"VEC3"},{"bufferView":6,"byteOffset":0,"componentType":5126,"count":2674,"type":"VEC3"},{"bufferView":7,"byteOffset":0,"componentType":5126,"count":2674,"type":"VEC2"},{"bufferView":8,"byteOffset":0,"componentType":5125,"count":6912,"type":"SCALAR"},{"bufferView":9,"byteOffset":0,"componentType":5126,"count":1432,"max":[1.5,1.5,1.5],"min":[-1.5,-1.5,-1.5],"type":"VEC3"},{"bufferView":10,"byteOffset":0,"componentType":5126,"count":1432,"type":"VEC3"},{"bufferView":11,"byteOffset":0,"componentType":5126,"count":1432,"type":"VEC2"},{"bufferView":12,"byteOffset":0,"componentType":5125,"count":3900,"type":"SCALAR"},{"bufferView":13,"byteOffset":0,"componentType":5126,"count":976,"max":[2,7,3],"min":[-2,-7,0],"type":"VEC3"},{"bufferView":14,"byteOffset":0,"componentType":5126,"count":976,"type":"VEC3"},{"bufferView":15,"byteOffset":0,"componentType":5126,"count":976,"type":"VEC2"},{"bufferView":16,"byteOffset":0,"componentType":5125,"count":6912,"type":"SCALAR"},{"bufferView":17,"byteOffset":0,"componentType":5126,"count":1432,"max":[3,2,3],"min":[-3,-2,-3],"type":"VEC3"},{"bufferView":18,"byteOffset":0,"componentType":5126,"count":1432,"type":"VEC3"},{"bufferView":19,"byteOffset":0,"componentType":5126,"count":1432,"type":"VEC2"},{"bufferView":20,"byteOffset":0,"componentType":5125,"count":6912,"type":"SCALAR"},{"bufferView":21,"byteOffset":0,"componentType":5126,"count":1302,"max":[3,1,3],"min":[-3,-1,-3],"type":"VEC3"},{"bufferView":22,"byteOffset":0,"componentType":5126,"count":1302,"type":"VEC3"},{"bufferView":23,"byteOffset":0,"componentType":5126,"count":1302,"type":"VEC2"},{"bufferView":24,"byteOffset":0,"componentType":5125,"count":6912,"type":"SCALAR"},{"bufferView":25,"byteOffset":0,"componentType":5126,"count":1432,"max":[8,3,8],"min":[-8,-3,-8],"type":"VEC3"},{"bufferView":26,"byteOffset":0,"componentType":5126,"count":1432,"type":"VEC3"},{"bufferView":27,"byteOffset":0,"componentType":5126,"count":1432,"type":"VEC2"},{"bufferView":28,"byteOffset":0,"componentType":5125,"count":768,"type":"SCALAR"},{"bufferView":29,"byteOffset":0,"componentType":5126,"count":262,"max":[3.5,9,3.5],"min":[-3.5,-9,-3.5],"type":"VEC3"},{"bufferView":30,"byteOffset":0,"componentType":5126,"count":262,"type":"VEC3"},{"bufferView":31,"byteOffset":0,"componentType":5126,"count":262,"type":"VEC2"},{"bufferView":32,"byteOffset":0,"componentType":5125,"count":6720,"type":"SCALAR"},{"bufferView":33,"byteOffset":0,"componentType":5126,"count":1431,"max":[6.5,43.5,6.5],"min":[-6.5,-43.5,-6.5],"type":"VEC3"},{"bufferView":34,"byteOffset":0,"componentType":5126,"count":1431,"type":"VEC3"},{"bufferView":35,"byteOffset":0,"componentType":5126,"count":1431,"type":"VEC2"},{"bufferView":36,"byteOffset":0,"componentType":5125,"count":6912,"type":"SCALAR"},{"bufferView":37,"byteOffset":0,"componentType":5126,"count":1432,"max":[6.5,9.5,6.5],"min":[-6.5,-9.5,-6.5],"type":"VEC3"},{"bufferView":38,"byteOffset":0,"componentType":5126,"count":1432,"type":"VEC3"},{"bufferView":39,"byteOffset":0,"componentType":5126,"count":1432,"type":"VEC2"},{"bufferView":40,"byteOffset":0,"componentType":5125,"count":9828,"type":"SCALAR"},{"bufferView":41,"byteOffset":0,"componentType":5126,"count":1968,"max":[66,37.5,31],"min":[-66,-37.5,0],"type":"VEC3"},{"bufferView":42,"byteOffset":0,"componentType":5126,"count":1968,"type":"VEC3"},{"bufferView":43,"byteOffset":0,"componentType":5126,"count":1968,"type":"VEC2"}],"bufferViews":[{"buffer":0,"byteOffset":0,"byteLength":56160,"target":34963},{"buffer":0,"byteOffset":56160,"byteLength":32088,"target":34962},{"buffer":0,"byteOffset":88248,"byteLength":32088,"target":34962},{"buffer":0,"byteOffset":120336,"byteLength":21392,"target":34962},{"buffer":0,"byteOffset":141728,"byteLength":56160,"target":34963},{"buffer":0,"byteOffset":197888,"byteLength":32088,"target":34962},{"buffer":0,"byteOffset":229976,"byteLength":32088,"target":34962},{"buffer":0,"byteOffset":262064,"byteLength":21392,"target":34962},{"buffer":0,"byteOffset":283456,"byteLength":27648,"target":34963},{"buffer":0,"byteOffset":311104,"byteLength":17184,"target":34962},{"buffer":0,"byteOffset":328288,"byteLength":17184,"target":34962},{"buffer":0,"byteOffset":345472,"byteLength":11456,"target":34962},{"buffer":0,"byteOffset":356928,"byteLength":15600,"target":34963},{"buffer":0,"byteOffset":372528,"byteLength":11712,"target":34962},{"buffer":0,"byteOffset":384240,"byteLength":11712,"target":34962},{"buffer":0,"byteOffset":395952,"byteLength":7808,"target":34962},{"buffer":0,"byteOffset":403760,"byteLength":27648,"target":34963},{"buffer":0,"byteOffset":431408,"byteLength":17184,"target":34962},{"buffer":0,"byteOffset":448592,"byteLength":17184,"target":34962},{"buffer":0,"byteOffset":465776,"byteLength":11456,"target":34962},{"buffer":0,"byteOffset":477232,"byteLength":27648,"target":34963},{"buffer":0,"byteOffset":504880,"byteLength":15624,"target":34962},{"buffer":0,"byteOffset":520504,"byteLength":15624,"target":34962},{"buffer":0,"byteOffset":536128,"byteLength":10416,"target":34962},{"buffer":0,"byteOffset":546544,"byteLength":27648,"target":34963},{"buffer":0,"byteOffset":574192,"byteLength":17184,"target":34962},{"buffer":0,"byteOffset":591376,"byteLength":17184,"target":34962},{"buffer":0,"byteOffset":608560,"byteLength":11456,"target":34962},{"buffer":0,"byteOffset":620016,"byteLength":3072,"target":34963},{"buffer":0,"byteOffset":623088,"byteLength":3144,"target":34962},{"buffer":0,"byteOffset":626232,"byteLength":3144,"target":34962},{"buffer":0,"byteOffset":629376,"byteLength":2096,"target":34962},{"buffer":0,"byteOffset":631472,"byteLength":26880,"target":34963},{"buffer":0,"byteOffset":658352,"byteLength":17172,"target":34962},{"buffer":0,"byteOffset":675524,"byteLength":17172,"target":34962},{"buffer":0,"byteOffset":692696,"byteLength":11448,"target":34962},{"buffer":0,"byteOffset":704144,"byteLength":27648,"target":34963},{"buffer":0,"byteOffset":731792,"byteLength":17184,"target":34962},{"buffer":0,"byteOffset":748976,"byteLength":17184,"target":34962},{"buffer":0,"byteOffset":766160,"byteLength":11456,"target":34962},{"buffer":0,"byteOffset":777616,"byteLength":39312,"target":34963},{"buffer":0,"byteOffset":816928,"byteLength":23616,"target":34962},{"buffer":0,"byteOffset":840544,"byteLength":23616,"target":34962},{"buffer":0,"byteOffset":864160,"byteLength":15744,"target":34962}],"scene":0,"scenes":[{"nodes":[0],"name":"Router"}],"extensionsUsed":["KHR_texture_transform"],"buffers":[{"byteLength":879904,"uri":"Router.bin"}]}