{"asset":{"version":"2.0","generator":"VECTARY"},"nodes":[{"translation":[0,0,0],"scale":[0.010000000000000002,0.009999999999999997,0.01],"rotation":[0.14814248687534287,0.08997793982428981,-0.5112654017606553,0.8417633057397318],"name":"mouse","children":[1,2]},{"translation":[-36.202171479069875,-2.7361715528982695,-1.374174904684082],"scale":[1,1.0000000000000002,1.0000000000000002],"rotation":[0.7071067811865475,0,0,0.7071067811865476],"name":"Cylinder","mesh":0},{"translation":[6.900585174560547,9.330501556396484,-0.0000057220458984375],"scale":[1,1,1],"rotation":[0,0,0,1],"name":"Cube","mesh":1}],"materials":[{"pbrMetallicRoughness":{"baseColorFactor":[0.5668097348966382,0.39408312608282897,0.8355277914608409,1],"metallicFactor":0,"roughnessFactor":0.2},"name":"Paris","emissiveFactor":[0,0,0],"extensions":{},"alphaMode":"OPAQUE","doubleSided":false},{"pbrMetallicRoughness":{"baseColorFactor":[0.267358060183772,0.15415226081216515,0.5479935021969718,1],"metallicFactor":0,"roughnessFactor":0.2},"name":"Iris","emissiveFactor":[0,0,0],"extensions":{},"alphaMode":"OPAQUE","doubleSided":false}],"meshes":[{"primitives":[{"mode":4,"attributes":{"POSITION":1,"NORMAL":2,"TEXCOORD_0":3},"material":0,"indices":0}]},{"primitives":[{"mode":4,"attributes":{"POSITION":5,"NORMAL":6,"TEXCOORD_0":7},"material":1,"indices":4}]}],"accessors":[{"bufferView":0,"byteOffset":0,"componentType":5125,"count":6912,"type":"SCALAR"},{"bufferView":1,"byteOffset":0,"componentType":5126,"count":1432,"max":[14,4,14],"min":[-14,-4,-14],"type":"VEC3"},{"bufferView":2,"byteOffset":0,"componentType":5126,"count":1432,"type":"VEC3"},{"bufferView":3,"byteOffset":0,"componentType":5126,"count":1432,"type":"VEC2"},{"bufferView":4,"byteOffset":0,"componentType":5125,"count":46848,"type":"SCALAR"},{"bufferView":5,"byteOffset":0,"componentType":5126,"count":22580,"max":[72.13052368164062,11.726537704467773,48.78148651123047],"min":[-85.94219207763672,-40.11186218261719,-48.781471252441406],"type":"VEC3"},{"bufferView":6,"byteOffset":0,"componentType":5126,"count":22580,"type":"VEC3"},{"bufferView":7,"byteOffset":0,"componentType":5126,"count":22580,"type":"VEC2"}],"bufferViews":[{"buffer":0,"byteOffset":0,"byteLength":27648,"target":34963},{"buffer":0,"byteOffset":27648,"byteLength":17184,"target":34962},{"buffer":0,"byteOffset":44832,"byteLength":17184,"target":34962},{"buffer":0,"byteOffset":62016,"byteLength":11456,"target":34962},{"buffer":0,"byteOffset":73472,"byteLength":187392,"target":34963},{"buffer":0,"byteOffset":260864,"byteLength":270960,"target":34962},{"buffer":0,"byteOffset":531824,"byteLength":270960,"target":34962},{"buffer":0,"byteOffset":802784,"byteLength":180640,"target":34962}],"scene":0,"scenes":[{"nodes":[0],"name":"Mouse"}],"extensionsUsed":["KHR_texture_transform"],"buffers":[{"byteLength":983424,"uri":"Mouse.bin"}]}