{"asset":{"version":"2.0","generator":"VECTARY"},"nodes":[{"translation":[0,0,0],"scale":[0.012077569864486756,0.012077569864486772,0.012077569864486761],"rotation":[-0.07472382393688004,0.012573101824755725,0.16545143981309451,0.9833026432947937],"name":"handle","children":[1,2,3,4,5,6,7,8,9,10,11,12,13,14,15,16]},{"translation":[3.4033500822598626,20.389693453921495,24.574532153092882],"scale":[1,1,1],"rotation":[0,0,0,1],"name":"Rectangle 2","mesh":0},{"translation":[62.72688972807605,56.82772076599565,7.856187092050163],"scale":[1,1.0000000000000002,1.0000000000000002],"rotation":[0.7071067811865475,0,0,0.7071067811865476],"name":"Cylinder 2","mesh":1},{"translation":[-59.24482712090934,56.82772076599565,7.856187092050162],"scale":[1,1.0000000000000002,1.0000000000000002],"rotation":[0.7071067811865475,0,0,0.7071067811865476],"name":"Cylinder","mesh":2},{"translation":[64.76746329851812,29.280409783571486,28.535571101335364],"scale":[1.0000000000000002,1.0000000000000002,1],"rotation":[0,0,0.7071067811865475,0.7071067811865476],"name":"Ellipse 8","mesh":3},{"translation":[51.91414394180072,16.122385638183687,28.535571101335364],"scale":[1,1,1],"rotation":[0,0,0,1],"name":"Ellipse 7","mesh":4},{"translation":[38.4514150077423,29.280409783571486,28.535571101335364],"scale":[1.0000000000000002,1.0000000000000002,1],"rotation":[0,0,0.7071067811865475,0.7071067811865476],"name":"Ellipse 8","mesh":5},{"translation":[51.91414394180072,42.438433928959626,28.535571101335364],"scale":[1,1,1],"rotation":[0,0,0,1],"name":"Ellipse 4","mesh":6},{"translation":[-36.568004407410164,29.28199107031321,28.535571101335364],"scale":[1.0000000000000002,1.0000000000000002,1],"rotation":[0,0,0.7071067811865475,0.7071067811865476],"name":"Rectangle 4","mesh":7},{"translation":[-48.96416832947997,16.885827148243152,28.535571101335364],"scale":[1,1,1],"rotation":[0,0,0,1],"name":"Rectangle 3","mesh":8},{"translation":[-61.36033225154981,29.28199107031321,28.535571101335364],"scale":[1.0000000000000002,1.0000000000000002,1],"rotation":[0,0,0.7071067811865475,0.7071067811865476],"name":"Rectangle 4","mesh":9},{"translation":[-48.96416832947997,41.678154992382815,28.535571101335364],"scale":[1,1,1],"rotation":[0,0,0,1],"name":"Rectangle 2","mesh":10},{"translation":[51.60943915313021,28.678154992383043,27.455563344259787],"scale":[1,1,1],"rotation":[0,0,0,1],"name":"Ellipse 3","mesh":11},{"translation":[-48.931734700145164,28.678154992383043,27.455563344259787],"scale":[1,1,1],"rotation":[0,0,0,1],"name":"Ellipse 2","mesh":12},{"translation":[51.60943915313021,28.678154992383043,26.38144449126972],"scale":[1,1,1],"rotation":[0,0,0,1],"name":"Ellipse 3","mesh":13},{"translation":[-48.931734700145164,28.678154992383043,26.38144449126972],"scale":[1,1,1],"rotation":[0,0,0,1],"name":"Ellipse","mesh":14},{"translation":[-0.018795013427734375,26.934656143188477,-4.206249733950244],"scale":[1,1,1],"rotation":[0,0,0,1],"name":"Cube","mesh":15}],"materials":[{"pbrMetallicRoughness":{"baseColorFactor":[0.6054842999109072,0.3392233349353267,0.6800203421720954,1],"metallicFactor":0,"roughnessFactor":0.2},"name":"Nila","emissiveFactor":[0,0,0],"extensions":{},"alphaMode":"OPAQUE","doubleSided":false},{"pbrMetallicRoughness":{"baseColorFactor":[0.8277257944550337,0.38891025653905886,1,1],"metallicFactor":0,"roughnessFactor":0.2},"name":"Everest","emissiveFactor":[0,0,0],"extensions":{},"alphaMode":"OPAQUE","doubleSided":false},{"pbrMetallicRoughness":{"baseColorFactor":[0.8277257944550337,0.38891025653905886,1,1],"metallicFactor":0,"roughnessFactor":0.2},"name":"Turbo","emissiveFactor":[0,0,0],"extensions":{},"alphaMode":"OPAQUE","doubleSided":false},{"pbrMetallicRoughness":{"baseColorFactor":[0.8277257944550337,0.38891025653905886,1,1],"metallicFactor":0,"roughnessFactor":0.2},"name":"Glittery Glow","emissiveFactor":[0,0,0],"extensions":{},"alphaMode":"OPAQUE","doubleSided":false},{"pbrMetallicRoughness":{"baseColorFactor":[0.8277257944550337,0.38891025653905886,1,1],"metallicFactor":0,"roughnessFactor":0.2},"name":"Galactica","emissiveFactor":[0,0,0],"extensions":{},"alphaMode":"OPAQUE","doubleSided":false},{"pbrMetallicRoughness":{"baseColorFactor":[0.8277257944550337,0.38891025653905886,1,1],"metallicFactor":0,"roughnessFactor":0.2},"name":"Secret Story","emissiveFactor":[0,0,0],"extensions":{},"alphaMode":"OPAQUE","doubleSided":false},{"pbrMetallicRoughness":{"baseColorFactor":[0.8277257944550337,0.38891025653905886,1,1],"metallicFactor":0,"roughnessFactor":0.2},"name":"Country Summer","emissiveFactor":[0,0,0],"extensions":{},"alphaMode":"OPAQUE","doubleSided":false},{"pbrMetallicRoughness":{"baseColorFactor":[0.8277257944550337,0.38891025653905886,1,1],"metallicFactor":0,"roughnessFactor":0.2},"name":"Little Valley","emissiveFactor":[0,0,0],"extensions":{},"alphaMode":"OPAQUE","doubleSided":false},{"pbrMetallicRoughness":{"baseColorFactor":[0.8277257944550337,0.38891025653905886,1,1],"metallicFactor":0,"roughnessFactor":0.2},"name":"Origami","emissiveFactor":[0,0,0],"extensions":{},"alphaMode":"OPAQUE","doubleSided":false},{"pbrMetallicRoughness":{"baseColorFactor":[0.8277257944550337,0.38891025653905886,1,1],"metallicFactor":0,"roughnessFactor":0.2},"name":"Alvin","emissiveFactor":[0,0,0],"extensions":{},"alphaMode":"OPAQUE","doubleSided":false},{"pbrMetallicRoughness":{"baseColorFactor":[0.8277257944550337,0.38891025653905886,1,1],"metallicFactor":0,"roughnessFactor":0.2},"name":"Pacific","emissiveFactor":[0,0,0],"extensions":{},"alphaMode":"OPAQUE","doubleSided":false},{"pbrMetallicRoughness":{"baseColorFactor":[0.267358060183772,0.15415226081216515,0.5479935021969718,1],"metallicFactor":0,"roughnessFactor":0.2},"name":"Cozy Cover","emissiveFactor":[0,0,0],"extensions":{},"alphaMode":"OPAQUE","doubleSided":false},{"pbrMetallicRoughness":{"baseColorFactor":[0.267358060183772,0.15415226081216515,0.5479935021969718,1],"metallicFactor":0,"roughnessFactor":0.2},"name":"Spanish Style","emissiveFactor":[0,0,0],"extensions":{},"alphaMode":"OPAQUE","doubleSided":false},{"pbrMetallicRoughness":{"baseColorFactor":[0.598941789493296,0.3392233349353267,0.6800203421720954,1],"metallicFactor":0,"roughnessFactor":0.2},"name":"Hawaii Morning","emissiveFactor":[0,0,0],"extensions":{},"alphaMode":"OPAQUE","doubleSided":false},{"pbrMetallicRoughness":{"baseColorFactor":[0.598941789493296,0.3392233349353267,0.6800203421720954,1],"metallicFactor":0,"roughnessFactor":0.2},"name":"Cold North","emissiveFactor":[0,0,0],"extensions":{},"alphaMode":"OPAQUE","doubleSided":false},{"pbrMetallicRoughness":{"baseColorFactor":[0.5668097348966382,0.39408312608282897,0.8355277914608409,1],"metallicFactor":0,"roughnessFactor":0.2},"name":"Euphoria","emissiveFactor":[0,0,0],"extensions":{},"alphaMode":"OPAQUE","doubleSided":false}],"meshes":[{"primitives":[{"mode":4,"attributes":{"POSITION":1,"NORMAL":2,"TEXCOORD_0":3},"material":0,"indices":0}]},{"primitives":[{"mode":4,"attributes":{"POSITION":5,"NORMAL":6,"TEXCOORD_0":7},"material":1,"indices":4}]},{"primitives":[{"mode":4,"attributes":{"POSITION":5,"NORMAL":6,"TEXCOORD_0":7},"material":2,"indices":4}]},{"primitives":[{"mode":4,"attributes":{"POSITION":9,"NORMAL":10,"TEXCOORD_0":11},"material":3,"indices":8}]},{"primitives":[{"mode":4,"attributes":{"POSITION":9,"NORMAL":10,"TEXCOORD_0":11},"material":4,"indices":8}]},{"primitives":[{"mode":4,"attributes":{"POSITION":9,"NORMAL":10,"TEXCOORD_0":11},"material":5,"indices":8}]},{"primitives":[{"mode":4,"attributes":{"POSITION":9,"NORMAL":10,"TEXCOORD_0":11},"material":6,"indices":8}]},{"primitives":[{"mode":4,"attributes":{"POSITION":13,"NORMAL":14,"TEXCOORD_0":15},"material":7,"indices":12}]},{"primitives":[{"mode":4,"attributes":{"POSITION":13,"NORMAL":14,"TEXCOORD_0":15},"material":8,"indices":12}]},{"primitives":[{"mode":4,"attributes":{"POSITION":13,"NORMAL":14,"TEXCOORD_0":15},"material":9,"indices":12}]},{"primitives":[{"mode":4,"attributes":{"POSITION":13,"NORMAL":14,"TEXCOORD_0":15},"material":10,"indices":12}]},{"primitives":[{"mode":4,"attributes":{"POSITION":17,"NORMAL":18,"TEXCOORD_0":19},"material":11,"indices":16}]},{"primitives":[{"mode":4,"attributes":{"POSITION":17,"NORMAL":18,"TEXCOORD_0":19},"material":12,"indices":16}]},{"primitives":[{"mode":4,"attributes":{"POSITION":21,"NORMAL":22,"TEXCOORD_0":23},"material":13,"indices":20}]},{"primitives":[{"mode":4,"attributes":{"POSITION":21,"NORMAL":22,"TEXCOORD_0":23},"material":14,"indices":20}]},{"primitives":[{"mode":4,"attributes":{"POSITION":25,"NORMAL":26,"TEXCOORD_0":27},"material":15,"indices":24}]}],"accessors":[{"bufferView":0,"byteOffset":0,"componentType":5125,"count":1956,"type":"SCALAR"},{"bufferView":1,"byteOffset":0,"componentType":5126,"count":656,"max":[9.5,3.5,4],"min":[-9.5,-3.5,0],"type":"VEC3"},{"bufferView":2,"byteOffset":0,"componentType":5126,"count":656,"type":"VEC3"},{"bufferView":3,"byteOffset":0,"componentType":5126,"count":656,"type":"VEC2"},{"bufferView":4,"byteOffset":0,"componentType":5125,"count":6912,"type":"SCALAR"},{"bufferView":5,"byteOffset":0,"componentType":5126,"count":1432,"max":[20,6.5,20],"min":[-20,-6.5,-20],"type":"VEC3"},{"bufferView":6,"byteOffset":0,"componentType":5126,"count":1432,"type":"VEC3"},{"bufferView":7,"byteOffset":0,"componentType":5126,"count":1432,"type":"VEC2"},{"bufferView":8,"byteOffset":0,"componentType":5125,"count":1524,"type":"SCALAR"},{"bufferView":9,"byteOffset":0,"componentType":5126,"count":384,"max":[7,7,4],"min":[-7,-7,0],"type":"VEC3"},{"bufferView":10,"byteOffset":0,"componentType":5126,"count":384,"type":"VEC3"},{"bufferView":11,"byteOffset":0,"componentType":5126,"count":384,"type":"VEC2"},{"bufferView":12,"byteOffset":0,"componentType":5125,"count":11796,"type":"SCALAR"},{"bufferView":13,"byteOffset":0,"componentType":5126,"count":2296,"max":[4,8,4],"min":[-4,-8,0],"type":"VEC3"},{"bufferView":14,"byteOffset":0,"componentType":5126,"count":2296,"type":"VEC3"},{"bufferView":15,"byteOffset":0,"componentType":5126,"count":2296,"type":"VEC2"},{"bufferView":16,"byteOffset":0,"componentType":5125,"count":756,"type":"SCALAR"},{"bufferView":17,"byteOffset":0,"componentType":5126,"count":256,"max":[25,25,2],"min":[-25,-25,0],"type":"VEC3"},{"bufferView":18,"byteOffset":0,"componentType":5126,"count":256,"type":"VEC3"},{"bufferView":19,"byteOffset":0,"componentType":5126,"count":256,"type":"VEC2"},{"bufferView":20,"byteOffset":0,"componentType":5125,"count":756,"type":"SCALAR"},{"bufferView":21,"byteOffset":0,"componentType":5126,"count":256,"max":[27,27,2],"min":[-27,-27,0],"type":"VEC3"},{"bufferView":22,"byteOffset":0,"componentType":5126,"count":256,"type":"VEC3"},{"bufferView":23,"byteOffset":0,"componentType":5126,"count":256,"type":"VEC2"},{"bufferView":24,"byteOffset":0,"componentType":5125,"count":42240,"type":"SCALAR"},{"bufferView":25,"byteOffset":0,"componentType":5126,"count":20628,"max":[91.24298858642578,45.603302001953125,32.309112548828125],"min":[-91.10334014892578,-99.89634704589844,-26.690942764282227],"type":"VEC3"},{"bufferView":26,"byteOffset":0,"componentType":5126,"count":20628,"type":"VEC3"},{"bufferView":27,"byteOffset":0,"componentType":5126,"count":20628,"type":"VEC2"}],"bufferViews":[{"buffer":0,"byteOffset":0,"byteLength":7824,"target":34963},{"buffer":0,"byteOffset":7824,"byteLength":7872,"target":34962},{"buffer":0,"byteOffset":15696,"byteLength":7872,"target":34962},{"buffer":0,"byteOffset":23568,"byteLength":5248,"target":34962},{"buffer":0,"byteOffset":28816,"byteLength":27648,"target":34963},{"buffer":0,"byteOffset":56464,"byteLength":17184,"target":34962},{"buffer":0,"byteOffset":73648,"byteLength":17184,"target":34962},{"buffer":0,"byteOffset":90832,"byteLength":11456,"target":34962},{"buffer":0,"byteOffset":102288,"byteLength":6096,"target":34963},{"buffer":0,"byteOffset":108384,"byteLength":4608,"target":34962},{"buffer":0,"byteOffset":112992,"byteLength":4608,"target":34962},{"buffer":0,"byteOffset":117600,"byteLength":3072,"target":34962},{"buffer":0,"byteOffset":120672,"byteLength":47184,"target":34963},{"buffer":0,"byteOffset":167856,"byteLength":27552,"target":34962},{"buffer":0,"byteOffset":195408,"byteLength":27552,"target":34962},{"buffer":0,"byteOffset":222960,"byteLength":18368,"target":34962},{"buffer":0,"byteOffset":241328,"byteLength":3024,"target":34963},{"buffer":0,"byteOffset":244352,"byteLength":3072,"target":34962},{"buffer":0,"byteOffset":247424,"byteLength":3072,"target":34962},{"buffer":0,"byteOffset":250496,"byteLength":2048,"target":34962},{"buffer":0,"byteOffset":252544,"byteLength":3024,"target":34963},{"buffer":0,"byteOffset":255568,"byteLength":3072,"target":34962},{"buffer":0,"byteOffset":258640,"byteLength":3072,"target":34962},{"buffer":0,"byteOffset":261712,"byteLength":2048,"target":34962},{"buffer":0,"byteOffset":263760,"byteLength":168960,"target":34963},{"buffer":0,"byteOffset":432720,"byteLength":247536,"target":34962},{"buffer":0,"byteOffset":680256,"byteLength":247536,"target":34962},{"buffer":0,"byteOffset":927792,"byteLength":165024,"target":34962}],"scene":0,"scenes":[{"nodes":[0],"name":"Joystick"}],"extensionsUsed":["KHR_texture_transform"],"buffers":[{"byteLength":1092816,"uri":"Joystick.bin"}]}