{"asset":{"version":"2.0","generator":"VECTARY"},"nodes":[{"translation":[0,0,0],"scale":[0.011754115872375896,0.011754115872375901,0.011754115872375901],"rotation":[0,0,0,1],"name":"plant","children":[1,2,3]},{"translation":[26.175640802620478,28.7527708545158,-13.726549653185879],"scale":[0.9999999999999998,0.9999999999999999,1],"rotation":[-0.19319382729352522,0.05884786940525297,-0.44699394606006304,0.871441039627923],"name":"Cube 3","mesh":0},{"translation":[-4.238968037788369,38.72590048174777,-2.7368419596282365],"scale":[1,1,1],"rotation":[-0.043577871373829104,0.0019026509541272315,0.043577871373829104,0.9980973490458727],"name":"Cube 2","mesh":1},{"translation":[0,-28.184954079245585,0],"scale":[1,1,1],"rotation":[0,0,0,1],"name":"Cube","mesh":2}],"materials":[{"pbrMetallicRoughness":{"baseColorFactor":[0.5668097348966382,0.39408312608282897,0.8355277914608409,1],"metallicFactor":0,"roughnessFactor":0.2},"name":"Aquarius","emissiveFactor":[0,0,0],"extensions":{},"alphaMode":"OPAQUE","doubleSided":false},{"pbrMetallicRoughness":{"baseColorFactor":[0.5668097348966382,0.39408312608282897,0.8355277914608409,1],"metallicFactor":0,"roughnessFactor":0.2},"name":"Atlantis","emissiveFactor":[0,0,0],"extensions":{},"alphaMode":"OPAQUE","doubleSided":false},{"pbrMetallicRoughness":{"baseColorFactor":[0.267358060183772,0.15415226081216515,0.5479935021969718,1],"metallicFactor":0,"roughnessFactor":0.2},"name":"Casa Blanca","emissiveFactor":[0,0,0],"extensions":{},"alphaMode":"OPAQUE","doubleSided":false}],"meshes":[{"primitives":[{"mode":4,"attributes":{"POSITION":1,"NORMAL":2,"TEXCOORD_0":3},"material":0,"indices":0}]},{"primitives":[{"mode":4,"attributes":{"POSITION":5,"NORMAL":6,"TEXCOORD_0":7},"material":1,"indices":4}]},{"primitives":[{"mode":4,"attributes":{"POSITION":9,"NORMAL":10,"TEXCOORD_0":11},"material":2,"indices":8}]}],"accessors":[{"bufferView":0,"byteOffset":0,"componentType":5125,"count":1728,"type":"SCALAR"},{"bufferView":1,"byteOffset":0,"componentType":5126,"count":812,"max":[10.41360092163086,7.524168968200684,10.42917537689209],"min":[-10.429677963256836,-25.271968841552734,-10.42917537689209],"type":"VEC3"},{"bufferView":2,"byteOffset":0,"componentType":5126,"count":812,"type":"VEC3"},{"bufferView":3,"byteOffset":0,"componentType":5126,"count":812,"type":"VEC2"},{"bufferView":4,"byteOffset":0,"componentType":5125,"count":1728,"type":"SCALAR"},{"bufferView":5,"byteOffset":0,"componentType":5126,"count":812,"max":[19.886096954345703,14.96009635925293,19.886096954345703],"min":[-19.886096954345703,-42.352867126464844,-19.886096954345703],"type":"VEC3"},{"bufferView":6,"byteOffset":0,"componentType":5126,"count":812,"type":"VEC3"},{"bufferView":7,"byteOffset":0,"componentType":5126,"count":812,"type":"VEC2"},{"bufferView":8,"byteOffset":0,"componentType":5125,"count":8448,"type":"SCALAR"},{"bufferView":9,"byteOffset":0,"componentType":5126,"count":4180,"max":[37.791358947753906,33.017906188964844,37.791358947753906],"min":[-37.791358947753906,-29.432891845703125,-37.791358947753906],"type":"VEC3"},{"bufferView":10,"byteOffset":0,"componentType":5126,"count":4180,"type":"VEC3"},{"bufferView":11,"byteOffset":0,"componentType":5126,"count":4180,"type":"VEC2"}],"bufferViews":[{"buffer":0,"byteOffset":0,"byteLength":6912,"target":34963},{"buffer":0,"byteOffset":6912,"byteLength":9744,"target":34962},{"buffer":0,"byteOffset":16656,"byteLength":9744,"target":34962},{"buffer":0,"byteOffset":26400,"byteLength":6496,"target":34962},{"buffer":0,"byteOffset":32896,"byteLength":6912,"target":34963},{"buffer":0,"byteOffset":39808,"byteLength":9744,"target":34962},{"buffer":0,"byteOffset":49552,"byteLength":9744,"target":34962},{"buffer":0,"byteOffset":59296,"byteLength":6496,"target":34962},{"buffer":0,"byteOffset":65792,"byteLength":33792,"target":34963},{"buffer":0,"byteOffset":99584,"byteLength":50160,"target":34962},{"buffer":0,"byteOffset":149744,"byteLength":50160,"target":34962},{"buffer":0,"byteOffset":199904,"byteLength":33440,"target":34962}],"scene":0,"scenes":[{"nodes":[0],"name":"Cactus"}],"extensionsUsed":["KHR_texture_transform"],"buffers":[{"byteLength":233344,"uri":"Cactus.bin"}]}